<?xml version="1.0" standalone="no"?>
<!DOCTYPE svg PUBLIC "-//W3C//DTD SVG 20010904//EN"
 "http://www.w3.org/TR/2001/REC-SVG-20010904/DTD/svg10.dtd">
<svg version="1.0" xmlns="http://www.w3.org/2000/svg"
 width="221.000000pt" height="198.000000pt" viewBox="0 0 221.000000 198.000000"
 preserveAspectRatio="xMidYMid meet">

<g transform="translate(0.000000,198.000000) scale(0.100000,-0.100000)"
fill="#000000" stroke="none">
<path d="M725 1778 c-3 -7 -6 -245 -8 -528 l-2 -515 -50 0 -50 0 -3 413 -2
413 -93 -3 -92 -3 -3 -412 -2 -413 -23 0 c-12 0 -28 -4 -35 -9 -18 -11 7 -21
54 -21 l34 0 2 413 3 412 55 0 55 0 3 -404 c1 -285 6 -408 14 -418 8 -10 33
-13 92 -11 l81 3 5 530 5 530 24 3 c13 2 39 1 57 -3 l34 -6 2 -527 3 -527 90
0 90 0 0 345 c0 300 -2 345 -15 345 -13 0 -15 -44 -18 -322 l-2 -323 -55 0
-55 0 -2 523 -3 522 -93 3 c-68 2 -94 -1 -97 -10z"/>
<path d="M1240 865 l0 -175 40 0 c44 0 58 26 18 32 -23 3 -23 6 -26 161 -2
130 -5 157 -17 157 -13 0 -15 -27 -15 -175z"/>
<path d="M1415 1028 c-3 -8 -4 -86 -3 -173 3 -134 5 -160 18 -160 13 0 15 25
15 169 0 127 -3 170 -12 173 -7 3 -15 -2 -18 -9z"/>
<path d="M1557 1022 c-28 -31 -20 -79 28 -168 50 -92 51 -93 31 -119 -12 -16
-16 -17 -30 -6 -9 7 -16 22 -16 32 0 11 -7 19 -15 19 -24 0 -19 -56 7 -74 30
-21 54 -20 78 4 32 32 25 74 -25 161 -48 84 -54 109 -29 130 14 11 18 10 30
-6 8 -10 14 -22 14 -27 0 -4 7 -8 15 -8 22 0 19 36 -5 60 -25 25 -62 26 -83 2z"/>
<path d="M1752 868 l3 -173 39 0 c46 0 61 22 19 27 -27 3 -28 5 -31 66 l-3 62
31 0 c39 0 41 27 3 32 -27 3 -28 5 -28 63 0 58 1 60 28 63 48 6 33 32 -18 32
l-45 0 2 -172z"/>
<path d="M1934 1027 c-2 -7 -3 -84 -2 -172 2 -113 6 -160 15 -162 9 -3 13 18
15 74 3 76 4 78 28 78 24 0 25 -2 28 -77 2 -59 6 -78 17 -78 22 0 20 308 -2
333 -19 20 -91 24 -99 4z m74 -29 c17 -17 15 -93 -3 -108 -29 -24 -45 -4 -45
53 0 30 3 57 7 60 10 11 28 8 41 -5z"/>
<path d="M1213 395 c0 -38 2 -53 4 -32 2 20 2 52 0 70 -2 17 -4 1 -4 -38z"/>
<path d="M1264 446 c-3 -7 -4 -35 -2 -62 l3 -49 5 63 c5 63 4 73 -6 48z"/>
<path d="M1300 392 l5 -67 3 59 c2 32 -1 63 -5 67 -4 4 -6 -22 -3 -59z"/>
<path d="M1355 449 c-4 -6 -5 -12 -2 -15 2 -3 7 2 10 11 7 17 1 20 -8 4z"/>
<path d="M1443 400 c0 -36 2 -50 4 -32 2 17 2 47 0 65 -2 17 -4 3 -4 -33z"/>
<path d="M1503 395 c0 -38 2 -53 4 -32 2 20 2 52 0 70 -2 17 -4 1 -4 -38z"/>
<path d="M1573 395 c0 -38 2 -53 4 -32 2 20 2 52 0 70 -2 17 -4 1 -4 -38z"/>
<path d="M1634 395 c1 -53 3 -60 21 -60 18 0 20 7 21 63 l1 62 -4 -60 c-3 -43
-8 -60 -18 -60 -10 0 -15 17 -18 58 l-3 57 0 -60z"/>
<path d="M1801 398 c0 -38 3 -68 7 -68 5 0 7 14 4 30 -3 21 0 30 9 30 10 0 11
2 2 8 -6 4 -13 21 -16 37 -2 17 -5 0 -6 -37z"/>
<path d="M1932 398 c2 -50 6 -63 21 -66 15 -3 17 5 17 62 0 60 -2 66 -20 66
-19 0 -21 -5 -18 -62z m28 -3 c0 -30 -4 -55 -10 -55 -5 0 -10 25 -10 55 0 30
5 55 10 55 6 0 10 -25 10 -55z"/>
<path d="M2023 395 c0 -38 2 -57 4 -40 3 16 10 33 16 37 9 6 9 8 0 8 -6 0 -14
15 -16 33 -2 17 -4 1 -4 -38z"/>
<path d="M1360 411 c0 -6 4 -13 10 -16 6 -3 7 1 4 9 -7 18 -14 21 -14 7z"/>
<path d="M995 400 c-19 -8 -19 -9 3 -9 12 -1 22 4 22 9 0 6 -1 10 -2 9 -2 0
-12 -4 -23 -9z"/>
<path d="M1102 370 c0 -19 2 -27 5 -17 2 9 2 25 0 35 -3 9 -5 1 -5 -18z"/>
<path d="M1534 246 c-11 -29 1 -119 16 -123 10 -3 11 -2 4 4 -7 4 -12 33 -12
63 0 30 5 58 12 62 8 6 7 8 -2 8 -7 0 -15 -6 -18 -14z"/>
<path d="M1680 190 c0 -60 2 -70 18 -70 11 0 13 3 6 8 -7 4 -12 32 -12 62 0
30 5 58 12 62 7 5 5 8 -6 8 -16 0 -18 -10 -18 -70z"/>
<path d="M1780 244 c7 -12 10 -29 6 -39 -8 -22 -23 -10 -29 25 -2 14 -4 -6 -4
-45 0 -38 2 -55 4 -37 3 18 10 32 18 32 8 0 15 -14 18 -32 2 -19 4 -6 5 28 2
47 -2 65 -15 75 -15 13 -15 12 -3 -7z"/>
<path d="M1842 188 c0 -40 3 -58 5 -40 2 17 8 32 13 32 5 0 11 -15 13 -32 2
-18 4 -2 3 37 -1 58 -4 70 -18 73 -16 3 -18 -5 -16 -70z m28 37 c0 -14 -4 -25
-10 -25 -5 0 -10 11 -10 25 0 14 5 25 10 25 6 0 10 -11 10 -25z"/>
<path d="M1931 251 c-8 -5 -11 -28 -9 -67 3 -50 6 -59 22 -59 11 0 22 7 24 15
4 12 3 13 -10 3 -21 -18 -28 -6 -28 47 0 52 7 65 27 49 8 -7 13 -8 13 -1 0 14
-24 22 -39 13z"/>
<path d="M2040 231 c0 -17 -4 -33 -10 -36 -6 -4 -10 7 -10 24 0 17 -4 31 -10
31 -6 0 -10 -28 -10 -65 0 -37 4 -65 10 -65 6 0 10 14 10 30 0 40 18 38 23 -2
2 -18 5 0 5 40 1 39 0 72 -3 72 -3 0 -5 -13 -5 -29z"/>
<path d="M1093 190 c0 -36 2 -50 4 -32 2 17 2 47 0 65 -2 17 -4 3 -4 -33z"/>
<path d="M1213 185 c0 -38 2 -53 4 -32 2 20 2 52 0 70 -2 17 -4 1 -4 -38z"/>
<path d="M1263 190 c0 -36 2 -50 4 -32 2 17 2 47 0 65 -2 17 -4 3 -4 -33z"/>
<path d="M1478 219 c-3 -18 -2 -46 2 -63 5 -23 7 -16 7 32 1 68 -2 79 -9 31z"/>
<path d="M1600 215 c1 -5 7 -19 15 -29 22 -28 20 -60 -2 -51 -14 5 -15 3 -6
-6 14 -14 33 -4 33 19 0 9 -9 31 -20 47 -11 17 -20 26 -20 20z"/>
</g>
</svg>
