<?xml version="1.0" standalone="no"?>
<!DOCTYPE svg PUBLIC "-//W3C//DTD SVG 20010904//EN"
 "http://www.w3.org/TR/2001/REC-SVG-20010904/DTD/svg10.dtd">
<svg version="1.0" xmlns="http://www.w3.org/2000/svg"
 width="4134.000000pt" height="4134.000000pt" viewBox="0 0 4134.000000 4134.000000"
 preserveAspectRatio="xMidYMid meet">

<g transform="translate(0.000000,4134.000000) scale(0.100000,-0.100000)"
fill="#000000" stroke="none">
<path d="M20215 40744 c-2160 -64 -4033 -394 -6004 -1059 -3273 -1103 -6266
-3097 -8582 -5715 -1885 -2132 -3295 -4632 -4135 -7335 -878 -2821 -1119
-5847 -703 -8795 289 -2050 891 -4030 1792 -5895 1968 -4077 5285 -7394 9362
-9362 2201 -1063 4561 -1709 7000 -1918 604 -51 1045 -69 1725 -69 1035 0
1881 59 2870 200 5777 823 10931 4160 14087 9119 2280 3583 3356 7803 3078
12070 -163 2502 -782 4919 -1840 7185 -112 239 -417 843 -541 1070 -1103 2023
-2525 3826 -4219 5350 -3386 3048 -7650 4838 -12190 5120 -446 27 -1327 45
-1700 34z m-615 -1674 c0 -19 263 -2477 275 -2571 l6 -45 -128 -13 c-70 -7
-142 -15 -159 -17 -31 -6 -34 -2 -560 718 -512 701 -773 1074 -883 1266 -30
51 -56 91 -58 89 -2 -3 10 -96 26 -208 17 -112 41 -294 55 -404 33 -258 177
-1587 173 -1591 -5 -5 -288 -37 -292 -33 -6 7 -285 2622 -280 2627 4 5 338 43
340 39 1 -1 224 -303 496 -672 639 -864 703 -956 878 -1253 40 -68 74 -122 76
-120 1 2 -15 104 -36 228 -20 124 -51 335 -68 470 -36 291 -163 1471 -159
1475 3 3 229 30 281 34 11 1 17 -6 17 -19z m2505 -5 c50 -8 131 -26 181 -39
91 -25 234 -83 234 -95 0 -21 -89 -266 -96 -264 -5 1 -48 18 -96 38 -113 47
-214 72 -345 86 -371 40 -684 -72 -882 -317 -103 -127 -178 -299 -217 -500
-25 -125 -25 -415 -1 -538 41 -202 121 -368 240 -492 121 -128 273 -212 457
-251 122 -26 406 -26 508 1 40 10 75 22 78 27 5 8 43 671 44 755 l0 31 -112 6
c-62 4 -173 10 -247 13 l-134 7 7 135 c3 75 7 137 9 139 6 6 792 -38 798 -45
3 -4 -9 -281 -27 -617 -18 -335 -33 -620 -33 -631 -1 -19 -16 -25 -118 -52
-225 -59 -286 -67 -548 -66 -261 0 -340 11 -512 70 -271 93 -493 286 -620 539
-142 281 -186 679 -113 1035 120 590 537 979 1115 1040 105 11 317 4 430 -15z
m2380 -361 c93 -20 172 -38 174 -40 7 -6 279 -2748 274 -2754 -4 -5 -274 47
-308 60 -18 7 -23 38 -61 434 -23 235 -45 430 -48 433 -5 5 -839 183 -842 179
-1 0 -95 -171 -209 -378 -115 -210 -213 -378 -221 -378 -21 0 -296 58 -301 64
-3 3 46 97 108 209 944 1690 1236 2206 1249 2207 8 0 91 -16 185 -36z m-7706
-1366 c407 -637 741 -1161 741 -1165 0 -8 -310 -94 -320 -88 -3 2 -108 166
-235 364 -126 198 -235 361 -242 361 -28 0 -816 -219 -823 -229 -3 -6 -12
-201 -19 -434 -7 -232 -15 -424 -17 -427 -5 -5 -307 -88 -311 -85 -3 2 107
2768 110 2771 8 8 363 100 368 95 4 -3 340 -527 748 -1163z m10361 596 c388
-141 708 -260 712 -264 4 -3 -9 -49 -30 -103 l-37 -97 -996 -767 c-548 -423
-997 -772 -998 -777 -2 -6 282 -114 629 -242 347 -127 633 -234 636 -237 7 -7
-86 -267 -95 -267 -10 0 -1662 607 -1667 613 -3 2 10 45 28 96 l34 91 1004
773 c552 425 1003 777 1003 782 -1 5 -255 103 -565 216 -309 114 -568 211
-575 216 -8 6 0 40 33 128 24 66 46 125 49 132 3 9 21 6 67 -11 35 -13 380
-140 768 -282z m-12642 -1256 c341 -634 622 -1159 624 -1167 3 -15 -262 -144
-273 -133 -7 7 -472 879 -679 1272 -62 118 -176 341 -252 495 -76 154 -138
277 -138 274 0 -3 15 -102 34 -220 19 -118 48 -322 65 -454 38 -297 191 -1656
191 -1694 0 -26 -8 -32 -99 -74 -54 -26 -103 -47 -109 -47 -8 0 -511 546
-1018 1105 -132 145 -342 392 -452 530 -91 115 -131 161 -120 140 12 -22 213
-498 311 -736 217 -526 557 -1393 550 -1399 -11 -10 -251 -120 -261 -120 -4 0
-216 535 -470 1188 -255 653 -472 1208 -482 1233 l-18 46 183 85 184 86 487
-521 c506 -542 756 -821 933 -1040 56 -71 105 -127 107 -125 2 3 -1 19 -6 37
-14 50 -77 436 -105 641 -22 168 -175 1540 -175 1573 0 13 328 175 356 176 6
1 291 -518 632 -1151z m14532 1070 c139 -70 113 -288 -42 -352 -53 -23 -95
-20 -144 9 -128 75 -104 279 41 346 53 25 91 24 145 -3z m-190 -548 c36 -18
67 -34 69 -36 7 -6 -1153 -2374 -1164 -2374 -13 0 -275 127 -275 134 0 5 1023
2102 1108 2273 l52 102 73 -33 c40 -19 102 -48 137 -66z m2736 -945 c51 -39
67 -77 62 -150 -7 -112 -92 -197 -197 -197 -73 0 -120 29 -155 99 -47 92 23
239 131 273 47 15 122 3 159 -25z m-20646 -147 c17 -57 36 -118 41 -135 13
-41 6 -53 -34 -53 -92 -1 -281 -68 -389 -139 -223 -146 -296 -345 -204 -547
35 -76 116 -158 195 -197 66 -32 66 -32 221 -32 131 1 177 5 300 30 126 26
167 30 315 30 150 0 179 -3 245 -23 200 -63 359 -209 459 -424 178 -379 7
-789 -432 -1040 -151 -87 -396 -164 -493 -156 l-37 3 -44 130 c-24 71 -43 132
-43 136 0 4 43 12 96 19 130 16 221 43 339 99 174 84 274 175 339 311 28 60
31 73 31 165 -1 121 -20 177 -95 276 -133 177 -313 217 -667 148 -417 -82
-668 -35 -861 163 -278 284 -279 697 -4 990 156 166 386 294 597 333 39 7 75
14 82 14 6 1 26 -45 43 -101z m19977 -84 l123 -88 -24 -30 c-80 -107 -928
-1284 -964 -1339 -96 -150 -163 -325 -177 -467 -8 -79 13 -191 52 -270 36 -74
140 -176 228 -222 108 -56 173 -71 279 -66 164 9 278 70 451 243 110 110 159
174 605 792 319 442 490 671 499 668 7 -3 67 -44 132 -91 l119 -86 -37 -52
c-193 -269 -860 -1189 -907 -1251 -141 -187 -331 -355 -490 -433 -132 -66
-219 -86 -366 -86 -147 0 -211 15 -347 79 -232 109 -414 289 -491 485 -38 98
-46 143 -46 265 1 227 80 445 257 710 142 210 963 1335 972 1331 6 -2 65 -43
132 -92z m1193 -149 c53 -27 90 -87 90 -143 0 -111 -105 -221 -210 -222 -46 0
-108 36 -138 80 -20 30 -23 45 -20 101 3 53 9 75 32 108 61 88 162 119 246 76z
m-10865 -905 c132 -6 337 -17 455 -25 3038 -215 5902 -1383 8235 -3360 499
-423 1053 -967 1496 -1470 1940 -2204 3157 -4961 3473 -7870 63 -578 80 -918
81 -1570 0 -560 -8 -760 -46 -1215 -181 -2157 -844 -4231 -1942 -6080 -833
-1402 -1899 -2654 -3152 -3700 -3207 -2678 -7391 -3811 -11535 -3124 -2615
433 -5071 1600 -7075 3363 -432 380 -923 871 -1301 1301 -1938 2203 -3144
4922 -3474 7830 -64 566 -85 972 -85 1625 1 536 7 732 41 1150 244 3068 1476
5974 3513 8290 380 432 871 923 1301 1301 2465 2168 5563 3413 8845 3553 281
12 896 12 1170 1z m-12165 -426 c173 -32 369 -120 540 -242 171 -121 385 -349
513 -547 292 -454 309 -939 47 -1319 -59 -86 -209 -235 -290 -287 -468 -307
-1054 -198 -1536 287 -308 310 -483 666 -501 1020 -17 351 124 662 405 885
128 102 264 168 412 200 109 23 299 24 410 3z m24154 -343 l119 -120 -203
-778 c-265 -1016 -314 -1185 -431 -1497 -27 -71 -47 -131 -45 -133 2 -2 45 44
95 102 186 213 357 392 885 923 l540 543 105 -105 104 -105 -928 -935 c-511
-515 -931 -936 -934 -936 -4 0 -57 51 -118 113 l-112 112 95 355 c403 1510
450 1675 553 1951 27 74 48 135 46 137 -1 2 -25 -21 -52 -50 -27 -29 -114
-123 -193 -208 -80 -85 -407 -418 -727 -740 l-582 -585 -106 105 -105 105 932
932 c513 513 935 933 938 933 3 0 59 -54 124 -119z m2288 -1671 c48 -14 97
-55 114 -97 51 -120 -57 -263 -198 -263 -68 0 -116 25 -145 76 -59 102 4 243
124 281 49 15 60 15 105 3z m-367 -411 c53 -66 95 -124 93 -129 -4 -10 -2059
-1652 -2063 -1648 -2 2 -46 57 -99 123 -61 76 -92 123 -86 129 7 7 2048 1640
2056 1645 1 1 45 -53 99 -120z m-28783 -404 c142 -30 260 -92 376 -200 93 -87
160 -186 197 -296 25 -74 28 -99 29 -204 0 -66 -5 -138 -12 -159 -6 -22 -10
-41 -8 -43 2 -2 34 11 72 29 61 29 81 33 174 36 168 6 211 -7 665 -198 193
-82 377 -150 405 -150 10 0 21 -4 24 -9 3 -5 -35 -65 -85 -135 -73 -103 -94
-126 -115 -126 -34 0 -210 66 -463 174 -326 140 -419 165 -543 145 -132 -21
-212 -86 -359 -291 l-99 -138 53 -38 c28 -21 237 -171 462 -332 226 -161 412
-294 413 -296 8 -6 -174 -253 -185 -251 -6 1 -486 341 -1066 756 l-1054 754
20 46 c63 144 262 457 383 602 224 269 464 378 716 324z m29443 -444 c47 -73
84 -139 81 -145 -5 -13 -975 -1131 -1163 -1341 -69 -77 -188 -206 -265 -287
-77 -82 -138 -148 -136 -148 2 0 71 23 153 50 83 28 247 79 365 114 220 65
1758 486 1775 486 14 0 186 -273 177 -281 -4 -3 -605 -160 -1337 -349 -731
-189 -1335 -345 -1341 -347 -12 -4 -198 281 -192 296 8 21 1781 2092 1788
2089 5 -2 48 -63 95 -137z m-31477 -1123 c33 -8 60 -25 92 -58 102 -101 83
-232 -42 -284 -98 -41 -212 7 -259 109 -48 104 4 211 116 238 34 8 44 7 93 -5z
m1908 -1112 l762 -438 -77 -134 c-42 -73 -80 -134 -85 -134 -11 0 -2256 1289
-2275 1306 -12 11 -2 34 63 148 l76 135 388 -223 c213 -122 730 -419 1148
-660z m31209 -614 c151 -320 275 -586 275 -590 0 -11 -239 -124 -251 -120 -5
2 -104 203 -220 448 -116 244 -211 446 -213 447 -2 2 -151 -67 -332 -153 -181
-86 -350 -166 -376 -178 l-47 -21 199 -420 c110 -231 198 -426 197 -433 -3
-18 -236 -127 -247 -116 -5 5 -98 196 -206 424 -108 228 -197 416 -199 418 -5
6 -849 -396 -852 -405 -2 -5 96 -219 217 -476 121 -256 220 -469 220 -474 0
-10 -248 -128 -255 -121 -18 17 -584 1233 -578 1239 19 18 2379 1127 2385
1121 4 -4 131 -269 283 -590z m-32148 -212 l1181 -512 -35 -82 c-19 -44 -47
-109 -62 -143 -14 -35 -31 -63 -37 -63 -6 0 -263 110 -571 243 l-561 244 -213
-491 c-117 -270 -223 -514 -235 -542 l-22 -51 561 -243 c309 -133 565 -245
569 -249 4 -3 -20 -67 -52 -141 -33 -74 -61 -139 -63 -143 -2 -8 -2402 1026
-2421 1044 -8 7 100 275 115 285 5 3 980 -413 1009 -431 8 -5 463 1044 464
1068 1 14 -100 61 -490 231 -270 117 -495 216 -501 219 -8 5 8 51 43 133 77
178 69 167 107 151 18 -8 564 -245 1214 -527z m32796 -1378 c85 -162 184 -421
234 -612 80 -308 48 -546 -96 -728 -75 -94 -219 -185 -366 -232 -99 -31 -267
-38 -369 -16 -131 30 -297 128 -366 219 -12 15 -25 27 -29 27 -5 0 -14 -27
-20 -59 -26 -131 -128 -268 -274 -368 -39 -27 -187 -118 -327 -202 -140 -83
-293 -178 -339 -212 -46 -33 -84 -59 -86 -57 -11 15 -94 301 -90 309 18 28
193 141 465 299 265 153 345 221 408 342 25 49 27 62 27 168 -1 112 -2 120
-54 275 -29 88 -54 161 -56 163 -1 1 -246 -77 -545 -173 -298 -97 -543 -175
-545 -173 -10 11 -95 291 -90 297 8 8 2445 799 2466 800 11 1 30 -24 52 -67z
m-34947 -749 c108 -29 133 -39 130 -52 -26 -87 -256 -935 -256 -944 0 -12 787
-233 797 -224 2 3 60 206 127 451 67 245 125 448 128 452 6 5 255 -60 265 -70
3 -3 -51 -210 -119 -461 -69 -250 -124 -455 -122 -455 1 0 200 -54 441 -120
241 -67 446 -122 457 -123 16 -2 35 59 157 502 76 277 140 505 142 507 3 3
267 -65 275 -71 3 -2 -358 -1318 -363 -1323 -5 -5 -2538 689 -2546 697 -4 3
72 290 167 636 95 347 174 631 174 633 0 5 16 1 146 -35z m35269 -1598 c107
-28 201 -82 289 -166 178 -169 266 -402 266 -707 0 -113 -16 -235 -40 -296
l-8 -22 -124 13 c-67 7 -133 15 -144 18 l-21 5 19 67 c28 96 36 321 14 422
-33 155 -122 283 -235 338 -51 25 -66 28 -166 28 -103 0 -114 -2 -177 -32
-156 -73 -221 -190 -308 -548 -43 -180 -71 -261 -130 -374 -92 -177 -241 -298
-430 -350 -574 -160 -1015 245 -1012 929 1 149 21 281 55 362 15 37 17 38 59
33 24 -3 87 -9 141 -14 54 -5 100 -10 102 -13 3 -3 -4 -31 -15 -62 -56 -163
-71 -388 -36 -541 67 -296 265 -446 527 -400 150 26 247 92 323 219 44 73 77
172 116 345 82 364 197 561 396 677 144 85 371 114 539 69z m-35749 -724 l123
-59 -46 -69 c-55 -83 -87 -152 -119 -262 -65 -224 -31 -409 99 -528 125 -114
324 -134 472 -48 89 51 169 149 347 425 112 174 257 318 378 377 197 97 442
96 656 -2 92 -42 136 -72 206 -142 72 -70 129 -157 163 -248 28 -74 55 -195
55 -248 0 -28 10 -40 79 -94 l80 -62 21 43 c47 99 149 166 252 166 126 0 235
-73 278 -186 44 -119 24 -294 -50 -422 l-30 -52 -79 40 -79 39 39 76 c33 64
39 86 39 136 0 74 -20 116 -65 135 -44 18 -59 18 -100 -2 -44 -20 -82 -77
-114 -168 l-26 -74 -124 89 c-68 50 -124 89 -126 87 -1 -2 -10 -39 -20 -83
-22 -102 -67 -230 -113 -320 -36 -73 -105 -179 -122 -190 -5 -3 -63 17 -127
46 -172 75 -160 66 -130 97 78 83 168 260 209 410 32 115 31 304 -2 387 -76
197 -245 298 -471 282 -64 -4 -95 -12 -148 -38 -85 -41 -196 -153 -271 -272
-157 -250 -197 -305 -284 -392 -97 -96 -165 -142 -274 -183 -61 -24 -79 -26
-217 -26 -136 0 -157 2 -230 27 -225 75 -382 238 -455 472 -62 198 -22 534 88
752 37 71 88 143 103 143 6 0 67 -27 135 -59z m36899 -1352 c106 -29 169 -134
134 -226 -15 -40 -57 -82 -104 -104 -113 -53 -258 14 -281 130 -15 72 54 170
137 196 55 17 65 17 114 4z m-435 -200 c7 -86 9 -154 4 -158 -14 -12 -2615
-245 -2623 -235 -10 11 -34 294 -26 302 6 6 2508 238 2591 241 l41 1 13 -151z
m-37242 -570 c63 -31 102 -89 102 -151 0 -105 -80 -178 -195 -178 -102 0 -182
65 -192 154 -7 58 1 87 33 126 59 70 165 91 252 49z m1627 -85 c721 -37 1311
-68 1313 -69 5 -4 -14 -304 -19 -310 -5 -5 -2630 125 -2637 131 -2 1 -1 73 3
158 5 104 11 156 19 156 6 0 601 -29 1321 -66z m35695 -676 c0 -255 -3 -662
-7 -905 l-6 -443 -144 0 -143 0 0 373 0 374 -547 6 c-302 4 -712 7 -913 7
-201 0 -483 3 -627 7 l-263 6 0 160 0 159 473 -6 c259 -3 790 -9 1180 -12
l707 -6 0 371 0 371 145 0 145 0 0 -462z m-34436 -225 c3 -54 8 -137 11 -184
l5 -85 -611 -420 c-337 -230 -621 -426 -631 -434 -18 -15 -17 -17 24 -46 24
-17 91 -65 149 -107 l106 -77 499 24 c274 13 502 21 505 17 4 -3 10 -74 14
-157 l6 -152 -103 -6 c-151 -10 -2450 -116 -2501 -116 l-44 0 -6 152 c-4 84
-4 154 -1 157 4 5 1100 60 1212 61 28 0 52 3 52 8 0 4 -37 29 -82 56 -178 106
-1215 811 -1227 834 -5 10 -12 100 -16 201 -6 152 -4 182 7 175 7 -5 267 -190
577 -411 310 -222 569 -403 575 -403 6 1 337 228 736 505 399 277 728 504 732
504 3 1 9 -43 12 -96z m33073 -1713 c707 -88 1288 -161 1289 -163 4 -4 -156
-1301 -161 -1306 -4 -3 -277 28 -282 33 -1 1 25 223 59 494 33 271 58 495 56
498 -10 10 -811 105 -818 97 -4 -4 -32 -215 -64 -467 -31 -253 -58 -461 -60
-463 -8 -9 -276 31 -276 41 0 6 25 217 56 469 31 252 55 459 53 462 -8 7 -929
118 -935 112 -3 -3 -35 -237 -70 -518 -36 -282 -67 -515 -70 -518 -5 -5 -273
25 -279 31 -2 2 35 305 81 673 46 369 84 673 84 678 0 4 11 7 25 7 14 0 604
-72 1312 -160z m-33317 -646 c238 -54 438 -254 529 -529 74 -226 80 -529 15
-737 -21 -66 -28 -78 -47 -78 -27 0 -271 22 -275 25 -1 1 11 42 27 91 41 123
55 232 48 378 -6 133 -23 208 -68 303 -83 175 -259 270 -448 243 -128 -18
-211 -59 -287 -143 -82 -89 -122 -186 -184 -442 -21 -88 -52 -196 -69 -240
-92 -239 -237 -389 -446 -461 -107 -36 -289 -45 -398 -19 -206 49 -374 191
-473 401 -71 148 -112 371 -98 539 6 83 41 252 52 259 7 4 282 -31 288 -37 2
-1 -5 -31 -16 -65 -42 -136 -48 -303 -14 -451 67 -296 332 -430 593 -300 141
71 196 178 309 610 92 349 246 541 508 628 152 51 302 59 454 25z m31987
-1115 l124 -71 -59 -62 c-141 -151 -236 -346 -262 -537 -43 -314 176 -547 493
-527 165 11 285 103 490 375 227 301 453 435 708 420 192 -12 338 -76 470
-207 73 -72 94 -100 132 -180 62 -127 81 -226 74 -379 -10 -231 -111 -493
-250 -654 l-33 -38 -122 73 c-67 40 -121 77 -122 81 0 5 18 30 41 55 94 107
177 288 200 440 43 282 -149 498 -428 480 -144 -10 -261 -95 -441 -323 -145
-183 -199 -241 -286 -311 -145 -116 -274 -164 -440 -164 -329 0 -608 174 -720
450 -113 278 -49 681 158 993 45 68 124 157 138 157 6 0 66 -32 135 -71z
m-31228 -691 c60 -189 391 -1281 389 -1283 -11 -11 -2523 -773 -2529 -767 -5
6 -379 1222 -383 1246 -1 11 261 92 270 83 4 -4 71 -216 150 -473 79 -256 145
-468 148 -471 4 -4 783 230 791 239 2 2 -58 206 -134 453 -93 302 -135 452
-127 456 18 10 257 81 260 77 2 -2 63 -200 137 -441 73 -241 137 -443 140
-449 6 -9 140 29 455 125 246 75 449 139 451 141 2 2 -64 225 -146 495 -83
270 -151 497 -151 505 0 8 33 24 88 40 48 15 105 33 127 41 54 18 52 19 64
-17z m31721 -1678 c641 -227 1168 -416 1171 -419 12 -11 -98 -296 -113 -293
-37 9 -2464 875 -2471 881 -5 5 15 74 43 154 l52 146 77 -28 c42 -16 600 -214
1241 -441z m1568 -541 c114 -56 146 -197 63 -280 -88 -89 -237 -70 -311 39
-34 49 -35 143 -3 188 50 70 165 94 251 53z m-18738 -9644 c359 -86 580 -453
580 -965 0 -456 -133 -824 -390 -1080 -217 -216 -481 -322 -867 -346 l-113 -7
0 130 0 129 148 11 c279 22 455 98 626 269 93 94 159 201 213 344 25 65 65
231 58 238 -2 2 -20 -15 -41 -37 -48 -54 -168 -133 -241 -161 -191 -72 -414
-63 -590 22 -245 120 -385 380 -370 688 21 407 290 720 672 780 78 12 233 4
315 -15z m3695 -5 c39 -12 97 -36 130 -53 73 -39 207 -170 253 -249 81 -137
136 -306 169 -512 24 -156 24 -536 0 -696 -49 -321 -137 -522 -296 -680 -143
-142 -275 -194 -491 -194 -145 -1 -222 18 -329 81 -86 51 -195 162 -253 259
-229 382 -263 1114 -73 1564 73 174 201 334 328 409 67 39 168 78 241 91 80
14 241 4 321 -20z m-5525 -1180 l0 -1171 -152 3 -153 3 -5 1017 -5 1017 -194
-104 c-107 -58 -198 -105 -202 -105 -5 0 -13 17 -18 38 -29 109 -50 196 -48
198 1 1 117 63 257 138 l255 136 133 0 132 0 0 -1170z m4220 1067 l0 -103
-509 -1064 -509 -1065 -166 -3 -167 -2 19 37 c68 134 992 2023 992 2027 0 3
-255 7 -567 8 l-568 3 -3 133 -3 132 741 0 740 0 0 -103z"/>
<path d="M24308 38213 c-53 -109 -190 -364 -303 -567 -114 -202 -203 -372
-198 -376 9 -9 694 -153 699 -147 2 2 -14 186 -36 408 -36 367 -56 628 -63
812 l-2 68 -97 -198z"/>
<path d="M15918 37945 c2 -118 -4 -406 -13 -641 -9 -234 -14 -428 -12 -431 7
-6 697 180 697 188 0 4 -86 141 -192 305 -234 366 -324 512 -412 672 -37 67
-68 122 -69 122 -1 0 0 -97 1 -215z"/>
<path d="M20630 34050 c-18 -19 -39 -68 -65 -147 -599 -1885 -763 -2315 -1137
-2988 -213 -382 -513 -858 -635 -1010 -111 -137 -175 -144 -409 -44 -198 85
-273 60 -322 -106 -10 -36 -16 -142 -22 -380 -4 -181 -13 -359 -19 -395 -68
-376 -236 -723 -407 -841 -24 -16 -71 -36 -106 -45 -54 -14 -75 -15 -144 -5
-145 20 -259 70 -387 169 -101 78 -154 97 -277 97 -107 0 -165 -21 -188 -68
-33 -68 -41 -655 -11 -867 17 -122 7 -527 -15 -597 -25 -79 -183 -267 -276
-329 -36 -24 -55 -29 -129 -32 -115 -6 -222 12 -296 48 -33 16 -118 70 -190
121 -250 175 -298 181 -361 45 -69 -152 -56 -524 37 -991 37 -191 77 -326 144
-495 40 -101 57 -158 66 -226 17 -138 -4 -168 -146 -204 -99 -26 -304 -29
-410 -7 -110 23 -415 140 -590 227 -206 101 -579 335 -815 510 -205 153 -239
175 -289 185 -33 7 -37 4 -170 -132 -166 -171 -196 -187 -356 -203 -187 -19
-511 10 -849 76 -382 75 -530 132 -1346 514 -645 302 -836 383 -1020 431 -261
68 -329 45 -303 -104 14 -83 59 -201 218 -572 185 -432 265 -653 353 -975 46
-166 68 -315 82 -550 6 -91 15 -203 20 -250 9 -81 27 -356 50 -765 24 -420 59
-613 132 -728 17 -26 61 -71 99 -101 87 -67 113 -100 112 -141 -2 -71 -188
-381 -307 -512 -31 -34 -83 -78 -114 -97 -88 -53 -106 -76 -100 -130 12 -100
126 -289 304 -499 208 -246 244 -293 286 -376 41 -81 43 -87 43 -175 0 -75 -5
-104 -29 -166 -72 -189 -88 -332 -67 -590 21 -257 52 -349 172 -505 159 -208
370 -555 415 -684 30 -84 30 -117 -1 -234 -47 -182 -146 -377 -253 -496 -63
-71 -334 -292 -533 -434 -225 -160 -791 -512 -934 -580 -215 -102 -703 -350
-810 -412 -307 -178 -403 -285 -396 -444 2 -36 83 -110 176 -158 121 -63 473
-200 955 -373 608 -219 859 -337 1210 -573 216 -145 290 -221 290 -298 0 -40
-24 -81 -101 -169 -64 -74 -66 -111 -11 -196 62 -96 78 -103 620 -254 443
-123 658 -244 710 -399 56 -164 -121 -485 -498 -901 -339 -375 -381 -458 -260
-520 136 -70 437 -75 794 -15 78 13 233 39 346 59 456 77 623 72 951 -28 164
-50 225 -74 259 -102 27 -23 29 -29 27 -90 -2 -62 0 -67 30 -94 40 -36 103
-54 163 -47 73 9 200 53 460 159 415 171 730 283 1025 366 368 104 476 107
735 17 149 -52 219 -53 320 -4 129 62 364 228 1000 704 820 615 923 689 1205
855 165 96 537 281 682 339 338 134 581 129 725 -15 111 -111 152 -258 194
-697 22 -224 30 -1056 15 -1489 -14 -385 -41 -916 -76 -1473 -14 -214 -36
-568 -50 -785 -48 -766 -56 -939 -62 -1356 -6 -448 2 -611 37 -749 24 -93 39
-116 98 -148 133 -73 534 -147 792 -147 204 0 498 44 676 101 153 49 190 86
217 216 26 120 37 285 37 553 0 392 -14 684 -95 1975 -86 1370 -106 1845 -107
2480 0 556 20 902 67 1177 44 249 134 380 302 434 76 24 229 24 338 0 285 -65
805 -321 1231 -608 182 -124 317 -222 869 -638 708 -534 882 -656 1030 -727
106 -50 170 -50 317 1 214 74 334 83 527 40 313 -70 762 -222 1239 -421 386
-160 495 -185 589 -135 23 12 45 27 50 34 4 7 10 47 13 88 5 71 7 75 38 96 18
13 97 43 175 68 417 135 545 137 1207 21 328 -57 422 -67 605 -68 209 0 330
26 392 85 61 57 5 151 -268 453 -294 325 -445 541 -510 729 -66 188 -18 298
177 414 134 79 291 135 681 242 359 97 414 125 467 232 39 77 35 95 -36 179
-73 87 -102 147 -93 190 22 98 373 348 750 534 222 109 396 180 763 311 419
151 776 290 907 353 93 46 131 70 168 110 39 42 47 56 47 89 0 135 -114 255
-393 416 -145 83 -558 294 -743 379 -221 102 -810 468 -1104 687 -198 148
-365 286 -431 358 -109 119 -198 288 -253 478 -34 115 -34 194 -2 274 56 138
241 440 402 655 140 189 164 260 184 566 14 225 4 321 -57 498 -39 114 -46
148 -46 213 -1 71 3 84 41 160 48 97 88 150 235 320 195 224 311 398 348 519
26 87 18 107 -68 163 -80 52 -149 122 -226 226 -112 154 -217 349 -217 403 0
31 53 90 148 165 131 104 170 290 207 982 16 306 30 501 45 645 5 50 14 164
20 255 14 211 23 272 70 455 82 316 176 577 388 1070 146 342 192 472 192 546
0 60 -5 71 -37 88 -36 18 -112 13 -242 -19 -187 -46 -400 -134 -966 -400 -828
-389 -1013 -464 -1314 -529 -320 -70 -583 -103 -826 -102 -256 0 -319 22 -443
153 -168 179 -179 188 -204 188 -41 0 -110 -43 -297 -183 -165 -125 -533 -362
-736 -475 -166 -93 -569 -249 -701 -272 -107 -19 -330 -8 -418 20 -97 31 -116
53 -116 134 0 89 15 151 66 278 86 211 145 446 195 778 19 119 23 190 23 390
1 231 0 248 -21 300 -68 167 -122 164 -388 -27 -66 -47 -147 -98 -180 -114
-65 -31 -162 -49 -265 -49 -126 0 -174 28 -308 180 -125 143 -132 161 -145
390 -9 162 -8 221 6 388 19 218 23 634 7 771 -16 138 -49 166 -200 166 -129 0
-176 -16 -279 -93 -155 -117 -309 -176 -457 -176 -68 0 -90 5 -136 27 -163 80
-332 362 -418 695 -45 179 -52 249 -60 582 -6 295 -9 331 -29 392 -15 48 -31
75 -58 98 -34 30 -40 32 -97 28 -44 -3 -92 -18 -169 -51 -198 -85 -268 -85
-354 1 -192 192 -815 1253 -1021 1737 -145 341 -322 842 -577 1631 -272 844
-255 795 -286 826 -38 38 -82 38 -119 -2z m175 -3681 c264 -36 512 -189 842
-516 662 -658 1613 -1935 2225 -2988 458 -789 716 -1452 877 -2260 96 -478
125 -780 126 -1290 0 -650 -54 -1034 -225 -1600 -291 -960 -841 -1862 -1521
-2496 -590 -550 -1047 -815 -1684 -979 -161 -41 -406 -86 -428 -77 -25 9 -102
324 -132 537 -112 815 90 1739 561 2562 419 732 940 1256 1709 1721 121 73
621 328 673 342 l23 7 -6 -159 c-12 -301 -57 -701 -86 -756 -6 -9 -32 -28 -58
-42 -79 -40 -277 -162 -404 -248 -369 -252 -709 -586 -954 -937 -219 -314
-389 -652 -508 -1005 -110 -324 -162 -594 -180 -938 l-7 -117 27 10 c61 23
269 135 376 201 810 506 1480 1406 1835 2464 186 557 253 1003 241 1605 -13
642 -118 1224 -336 1861 -159 466 -411 970 -771 1549 -841 1351 -2044 2802
-2322 2800 -82 -1 -220 -102 -444 -325 -754 -751 -1876 -2310 -2363 -3282
-379 -757 -601 -1474 -662 -2136 -8 -89 -16 -136 -23 -134 -122 47 -462 142
-650 183 l-78 16 7 67 c102 996 501 2045 1216 3193 482 773 1163 1690 1703
2293 140 155 425 442 531 534 317 274 587 380 870 340z m8681 -5954 c214 -37
364 -113 495 -252 246 -261 282 -599 117 -1097 -169 -513 -533 -1338 -1146
-2601 -251 -518 -731 -1477 -810 -1617 -518 -925 -1178 -1565 -2067 -2003
-1273 -629 -2709 -682 -3775 -140 -262 134 -467 282 -670 485 -122 121 -320
360 -328 395 -2 7 31 57 72 111 463 607 1314 973 2371 1020 662 29 1561 -174
2264 -512 l155 -74 -65 -46 c-178 -126 -437 -271 -656 -368 l-102 -45 -94 34
c-209 75 -520 158 -752 199 -304 53 -676 70 -942 42 -402 -43 -719 -128 -1018
-276 -88 -43 -168 -85 -179 -92 -17 -13 -11 -19 83 -82 630 -419 1571 -521
2516 -271 282 74 525 167 805 306 732 366 1265 881 1705 1649 77 135 646 1272
895 1790 669 1390 1023 2229 1080 2563 16 87 9 113 -32 126 -263 82 -1588
-140 -3888 -653 -184 -41 -335 -74 -337 -73 -1 1 -3 174 -5 385 -3 333 -1 383
12 387 31 9 949 209 1335 290 1081 227 1915 373 2385 419 202 19 466 20 576 1z
m-16997 -30 c672 -68 1793 -280 3666 -696 553 -123 721 -165 945 -239 976
-321 1866 -915 2418 -1615 853 -1082 1194 -2441 890 -3553 -18 -67 -37 -116
-45 -119 -23 -9 -295 46 -458 92 -1104 315 -2098 1209 -2730 2457 -218 429
-367 826 -480 1278 -46 184 -110 498 -103 505 16 17 489 -159 708 -263 l125
-59 29 -109 c334 -1259 1181 -2388 2167 -2889 70 -36 130 -65 133 -65 9 0 7
124 -4 250 -47 509 -216 1034 -485 1506 -83 144 -251 393 -351 517 -519 649
-1395 1188 -2324 1431 -74 19 -378 89 -675 155 -2087 463 -3238 671 -3730 675
-207 1 -228 -5 -233 -73 -15 -210 357 -1115 1054 -2566 254 -530 844 -1708
929 -1855 196 -342 381 -594 639 -873 54 -59 97 -109 95 -111 -5 -5 -581 -307
-642 -337 l-47 -23 -53 59 c-227 254 -452 571 -647 910 -99 172 -708 1389
-990 1980 -645 1349 -963 2107 -1062 2530 -30 129 -37 365 -13 472 35 158 107
287 225 404 112 111 275 192 448 223 105 19 414 20 601 1z m5276 -5665 c743
-55 1357 -261 1838 -617 129 -96 332 -300 419 -422 l67 -93 -39 -58 c-184
-271 -460 -527 -769 -714 -1058 -641 -2598 -627 -3948 36 -79 38 -143 73 -143
77 0 10 651 343 762 390 l97 41 148 -49 c809 -271 1668 -280 2328 -26 173 66
374 172 484 254 l33 25 -21 17 c-65 53 -287 157 -470 220 -352 122 -716 176
-1119 166 -324 -7 -622 -52 -963 -146 -402 -111 -638 -211 -1236 -521 -1358
-706 -2181 -1168 -2421 -1359 -69 -55 -67 -75 7 -112 239 -119 945 -303 2761
-720 229 -52 488 -100 660 -121 165 -20 643 -17 810 5 640 87 1261 327 1740
676 163 118 271 211 448 385 349 343 630 675 885 1047 106 154 113 161 128
123 69 -180 81 -495 29 -738 -145 -669 -746 -1332 -1600 -1765 -710 -361
-1514 -540 -2248 -501 -399 21 -730 79 -1532 269 -69 16 -262 62 -430 101
-1044 246 -1692 428 -1946 549 -236 113 -393 263 -469 449 -56 138 -68 335
-30 483 39 148 148 311 292 434 187 159 581 400 1308 797 504 276 1624 861
1811 946 758 346 1630 523 2329 472z m10327 -1601 c625 -348 928 -546 1079
-706 116 -123 185 -245 215 -381 26 -118 16 -301 -23 -415 -41 -118 -84 -186
-173 -277 -127 -128 -283 -216 -542 -306 -288 -99 -902 -264 -1563 -419 -154
-36 -361 -86 -460 -110 -311 -77 -903 -205 -1080 -235 -762 -128 -1444 -73
-2181 174 -815 275 -1497 744 -1902 1308 -32 46 -74 109 -93 141 l-34 58 -14
-33 c-42 -102 -128 -363 -161 -493 -57 -225 -89 -429 -121 -795 -8 -88 -13
-1049 -16 -3222 l-4 -3098 -323 0 -323 0 -7 2953 c-7 3002 -6 3208 29 3544 64
611 212 1194 452 1773 67 162 312 670 323 670 4 0 51 -64 105 -142 368 -533
827 -1043 1214 -1352 501 -400 1161 -675 1851 -771 155 -22 560 -31 731 -16
249 22 514 70 909 165 58 14 312 73 565 131 1263 290 2024 504 2095 591 13 15
10 21 -30 57 -138 122 -708 459 -1435 847 -126 67 -249 134 -273 147 l-43 24
93 66 c125 89 300 230 432 350 l110 99 165 -89 c92 -49 286 -156 433 -238z"/>
<path d="M8714 34241 c-140 -22 -251 -79 -362 -186 -119 -114 -178 -228 -202
-393 -33 -226 67 -527 264 -789 245 -327 563 -535 878 -575 317 -40 614 146
718 447 145 421 -185 1048 -713 1357 -186 108 -421 164 -583 139z"/>
<path d="M6143 31400 c-175 -37 -359 -213 -486 -466 l-36 -71 337 -241 c185
-132 363 -259 394 -281 l56 -41 106 149 c160 225 192 292 203 431 10 137 -35
256 -137 357 -129 127 -301 192 -437 163z"/>
<path d="M37463 26381 c-249 -80 -453 -150 -453 -156 -1 -35 126 -392 158
-444 120 -197 309 -284 524 -240 29 6 94 30 144 54 146 70 219 167 245 324 22
133 -17 319 -110 517 -21 45 -42 83 -47 86 -5 3 -213 -61 -461 -141z"/>
<path d="M19560 4398 c-177 -20 -324 -170 -376 -384 -23 -95 -23 -261 0 -339
47 -158 136 -257 274 -307 69 -24 210 -29 292 -9 127 31 247 113 311 213 l34
53 -1 130 c-5 435 -207 680 -534 643z"/>
<path d="M23230 4391 c-185 -60 -309 -267 -367 -606 -27 -165 -25 -574 5 -735
51 -277 153 -462 296 -538 45 -24 62 -27 151 -27 86 0 107 3 150 24 151 74
254 270 302 573 25 163 25 579 -1 733 -37 224 -98 376 -188 472 -72 75 -140
106 -242 110 -45 1 -92 -1 -106 -6z"/>
</g>
</svg>
