<?xml version="1.0" standalone="no"?>
<!DOCTYPE svg PUBLIC "-//W3C//DTD SVG 20010904//EN"
 "http://www.w3.org/TR/2001/REC-SVG-20010904/DTD/svg10.dtd">
<svg version="1.0" xmlns="http://www.w3.org/2000/svg"
 width="900.000000pt" height="500.000000pt" viewBox="0 0 900.000000 500.000000"
 preserveAspectRatio="xMidYMid meet">

<g transform="translate(0.000000,500.000000) scale(0.100000,-0.100000)"
fill="#000000" stroke="none">
<path d="M190 2500 l0 -1840 4310 0 4310 0 0 1840 0 1840 -4310 0 -4310 0 0
-1840z m3454 1384 c3 -9 6 -135 6 -281 l0 -265 33 21 c93 62 130 75 202 75
116 -1 208 -62 258 -173 16 -36 21 -67 21 -142 1 -90 -1 -99 -37 -171 -68
-138 -171 -208 -317 -216 -72 -3 -97 0 -159 21 -70 23 -75 24 -102 8 -47 -26
-52 -10 -40 115 15 143 15 821 0 862 -7 22 -21 35 -45 44 -19 6 -34 17 -34 23
0 6 28 21 63 34 34 12 78 31 97 41 43 24 46 24 54 4z m-1203 -80 c29 -6 31
-12 45 -143 6 -57 5 -63 -11 -60 -10 3 -24 21 -32 44 -53 155 -287 169 -354
21 -39 -87 -12 -192 65 -248 22 -16 90 -54 149 -84 169 -86 234 -158 244 -274
9 -91 -17 -162 -82 -226 -70 -67 -140 -95 -257 -102 -89 -5 -219 16 -251 41
-11 8 -22 46 -32 114 -8 57 -15 105 -15 108 0 3 8 5 18 5 11 0 25 -19 40 -53
48 -112 122 -167 224 -167 127 0 208 76 208 195 0 104 -37 145 -214 240 -172
91 -228 155 -242 276 -17 148 61 267 209 315 41 14 225 13 288 -2z m690 -389
c19 -10 46 -29 62 -43 l27 -26 0 -231 c0 -143 4 -244 11 -264 13 -36 46 -49
79 -31 16 8 25 9 33 1 22 -22 -90 -91 -146 -91 -43 0 -83 31 -92 70 -4 17 -9
30 -12 30 -3 0 -19 -11 -35 -25 -85 -72 -209 -96 -286 -56 -60 31 -84 73 -79
139 6 90 53 123 286 203 l124 42 -6 69 c-10 123 -48 154 -180 149 -39 -1 -87
-51 -87 -90 0 -39 -42 -73 -84 -69 -27 3 -31 8 -34 35 -5 50 43 94 172 159
102 52 115 56 162 51 29 -3 67 -13 85 -22z m1614 -10 c80 -38 79 -36 85 -320
3 -137 9 -256 13 -262 10 -16 51 -17 77 -3 13 7 21 7 25 0 17 -27 -84 -91
-145 -92 -47 0 -74 19 -92 68 l-12 33 -47 -35 c-66 -48 -112 -65 -179 -66
-108 -2 -175 54 -175 145 0 97 44 131 278 212 l122 43 -1 76 c0 72 -2 78 -32
108 -26 27 -40 32 -90 36 -94 7 -118 -11 -148 -113 -17 -56 -114 -66 -114 -12
0 51 45 94 166 157 126 66 173 70 269 25z m535 -20 c0 -30 3 -55 6 -55 3 0 25
14 50 31 78 54 133 73 209 73 87 1 133 -24 164 -88 19 -39 21 -60 21 -279 0
-224 1 -238 20 -257 12 -12 33 -20 55 -20 28 0 35 -4 35 -20 0 -19 -7 -20
-170 -20 -163 0 -170 1 -170 20 0 17 7 20 39 20 72 0 73 3 69 261 l-3 229 -32
31 c-26 27 -41 33 -86 37 -47 4 -66 -1 -126 -28 l-71 -33 0 -236 c0 -171 3
-240 12 -249 7 -7 29 -12 50 -12 31 0 38 -4 38 -20 0 -19 -7 -20 -170 -20
-163 0 -170 1 -170 20 0 17 7 20 39 20 70 0 71 4 71 245 0 118 -4 225 -10 239
-5 15 -25 34 -45 43 -58 27 -46 47 48 78 45 15 89 31 97 36 27 15 30 10 30
-46z m1151 36 c70 -21 105 -80 75 -126 -27 -41 -67 -34 -111 19 -101 123 -266
86 -326 -72 -44 -118 -9 -269 81 -343 80 -67 207 -75 305 -20 48 27 55 29 66
14 11 -13 7 -21 -31 -54 -117 -102 -264 -136 -373 -86 -121 55 -197 166 -197
287 0 190 118 344 297 390 44 11 162 6 214 -9z m437 -296 c1 -207 6 -313 13
-322 6 -7 29 -13 50 -13 32 0 39 -3 39 -20 0 -19 -7 -20 -165 -20 -158 0 -165
1 -165 20 0 16 7 20 31 20 17 0 39 5 50 10 18 10 19 24 19 244 0 219 -1 235
-20 259 -11 14 -29 29 -40 32 -11 4 -20 14 -20 24 0 12 24 25 93 48 50 17 97
30 102 29 6 -2 11 -116 13 -311z m1450 -228 c24 -22 29 -63 9 -88 -34 -45 -92
-46 -127 -2 -25 32 -25 54 0 86 32 40 75 42 118 4z m-7543 7 c8 -4 22 -19 30
-35 18 -34 8 -69 -27 -93 -32 -23 -65 -20 -93 9 -62 61 6 151 90 119z m658
-245 c24 -11 47 -47 47 -74 0 -8 -10 -26 -22 -40 -32 -37 -83 -37 -115 -1 -32
37 -29 69 8 100 34 29 47 31 82 15z m4611 -240 c33 -15 50 -57 37 -92 -20 -53
-95 -65 -130 -21 -34 43 -25 86 24 112 26 15 38 15 69 1z m-3205 -114 c71 -36
47 -135 -34 -135 -74 0 -104 78 -49 128 29 26 45 27 83 7z m-1849 -45 c0 -16
-7 -20 -34 -20 -55 0 -86 -17 -101 -55 -12 -27 -15 -90 -15 -302 0 -147 5
-299 10 -336 18 -126 89 -220 188 -248 26 -8 81 -14 123 -13 135 2 222 60 255
170 11 37 14 123 14 391 l0 344 -25 24 c-19 20 -34 25 -75 25 -43 0 -50 3 -50
20 0 19 7 20 180 20 173 0 180 -1 180 -20 0 -15 -7 -20 -29 -20 -17 0 -42 -10
-58 -24 l-28 -24 -6 -354 c-5 -371 -7 -383 -55 -458 -66 -105 -190 -160 -362
-160 -206 1 -345 84 -392 238 -18 58 -20 93 -20 378 0 252 -3 322 -15 349 -15
38 -46 55 -101 55 -27 0 -34 4 -34 20 0 19 7 20 225 20 218 0 225 -1 225 -20z
m5360 -275 l0 -75 115 0 115 0 0 -45 0 -45 -115 0 -115 0 0 -220 c0 -240 5
-265 55 -288 37 -17 65 -15 109 9 21 11 46 17 55 14 13 -5 9 -13 -23 -41 -82
-71 -185 -94 -260 -59 -63 30 -66 45 -66 329 l0 256 -55 0 c-67 0 -72 16 -15
55 43 30 126 115 154 158 33 49 46 35 46 -48z m-4035 -81 c15 -9 36 -35 48
-58 21 -39 22 -56 25 -291 3 -279 2 -275 74 -275 31 0 38 -4 38 -20 0 -19 -7
-20 -170 -20 -163 0 -170 1 -170 20 0 16 7 20 31 20 17 0 39 5 50 10 18 10 19
24 19 243 0 211 -2 235 -19 263 -38 62 -135 70 -239 18 l-57 -29 -3 -240 c-3
-267 -3 -265 65 -265 26 0 33 -4 33 -20 0 -19 -7 -20 -165 -20 -158 0 -165 1
-165 20 0 16 7 20 34 20 64 0 66 7 66 248 0 242 -3 255 -63 287 -21 11 -36 26
-35 33 3 15 197 84 216 77 7 -2 12 -23 12 -51 l0 -46 33 21 c131 87 262 108
342 55z m1893 -11 c68 -42 105 -99 110 -173 l4 -60 -232 0 -233 0 7 -67 c9
-96 31 -155 77 -206 87 -100 209 -101 332 -4 29 22 41 27 50 18 15 -15 -78
-109 -147 -148 -45 -25 -61 -28 -141 -28 -102 0 -145 15 -203 74 -56 56 -85
132 -90 234 -9 178 55 301 192 374 73 38 200 32 274 -14z m-1368 -272 c0 -347
-1 -341 71 -341 32 0 39 -3 39 -20 0 -19 -7 -20 -170 -20 -163 0 -170 1 -170
20 0 16 7 20 31 20 17 0 39 5 50 10 18 10 19 24 19 254 l0 244 -31 26 c-17 14
-35 26 -41 26 -5 0 -8 7 -6 17 3 17 141 71 186 72 l22 1 0 -309z m1832 237 l3
-71 30 43 c64 92 177 129 230 75 42 -41 29 -103 -27 -124 -19 -7 -36 -4 -69
11 -58 26 -98 18 -138 -28 l-31 -35 0 -214 c0 -247 -5 -235 99 -235 54 0 61
-2 61 -20 0 -19 -7 -20 -205 -20 -198 0 -205 1 -205 20 0 17 7 20 44 20 77 0
77 -1 74 268 l-3 237 -38 20 c-20 11 -36 26 -35 32 4 16 155 91 185 92 21 1
22 -4 25 -71z m763 54 c46 -16 50 -20 57 -57 4 -22 7 -59 7 -83 1 -35 -2 -43
-16 -40 -9 2 -21 17 -26 33 -26 79 -78 115 -168 115 -45 0 -55 -4 -86 -35 -31
-31 -35 -40 -30 -72 9 -52 47 -86 146 -129 150 -66 194 -104 212 -183 18 -82
-27 -167 -115 -214 -59 -32 -229 -32 -298 0 l-46 21 -7 69 c-4 37 -8 77 -9 88
0 11 6 21 17 23 10 2 17 -3 17 -13 0 -25 35 -87 67 -117 35 -33 73 -48 124
-48 112 0 167 110 91 183 -15 14 -70 47 -122 72 -142 70 -181 114 -182 209 0
29 6 66 15 83 20 39 82 91 122 102 51 15 176 11 230 -7z m475 -297 c0 -300 1
-315 19 -325 11 -5 33 -10 50 -10 24 0 31 -4 31 -20 0 -19 -7 -20 -170 -20
-163 0 -170 1 -170 20 0 17 7 20 39 20 70 0 71 3 71 255 0 124 -4 235 -10 250
-5 14 -23 34 -40 43 -50 28 -38 44 53 73 45 15 92 27 105 28 l22 1 0 -315z
m1819 299 c38 -8 75 -20 84 -27 9 -8 17 -38 21 -84 6 -66 4 -73 -12 -73 -12 0
-25 16 -39 49 -27 64 -68 91 -141 91 -87 0 -132 -34 -132 -99 0 -51 48 -94
159 -141 107 -45 171 -92 191 -140 7 -17 11 -54 8 -89 -5 -74 -38 -120 -111
-158 -46 -24 -63 -27 -147 -27 -70 0 -108 5 -144 20 -55 21 -59 28 -70 137 -6
61 -5 68 10 65 10 -2 23 -21 31 -44 35 -104 150 -160 248 -120 40 17 55 42 55
94 0 58 -29 86 -149 147 -128 64 -176 110 -186 179 -17 110 49 196 172 225 56
13 77 13 152 -5z m501 -298 c0 -240 3 -316 13 -324 7 -6 30 -12 52 -14 28 -2
41 -8 43 -20 3 -17 -10 -18 -167 -18 -164 0 -171 1 -171 20 0 16 7 20 38 20
21 0 43 5 50 12 15 15 17 470 2 499 -6 10 -24 26 -40 34 -49 25 -37 41 58 73
136 47 122 80 122 -282z m-1129 289 c54 -19 114 -66 135 -106 21 -42 34 -120
23 -141 -9 -16 -29 -18 -231 -18 l-221 0 5 -77 c15 -241 220 -341 402 -194 38
30 56 33 56 7 0 -23 -109 -116 -167 -143 -45 -21 -72 -26 -127 -26 -39 1 -84
6 -101 13 -129 49 -204 188 -192 355 7 97 26 155 72 217 80 109 221 155 346
113z m-3801 -15 c0 -15 -7 -20 -26 -20 -33 0 -64 -17 -64 -35 0 -20 152 -415
160 -415 13 0 152 355 153 394 2 39 1 41 -35 50 -27 7 -38 15 -38 28 0 16 11
18 130 18 121 0 130 -1 130 -19 0 -13 -10 -21 -34 -25 -57 -11 -64 -23 -217
-394 -96 -233 -106 -252 -127 -250 -21 3 -38 38 -147 308 -78 191 -132 312
-146 323 -12 9 -32 17 -45 17 -17 0 -24 6 -24 20 0 19 7 20 165 20 158 0 165
-1 165 -20z"/>
<path d="M3697 3320 l-47 -30 0 -207 c0 -204 0 -209 24 -244 61 -90 205 -91
288 -3 72 77 97 223 58 328 -60 158 -208 229 -323 156z"/>
<path d="M3005 3051 c-142 -49 -185 -83 -185 -148 0 -45 14 -69 50 -88 58 -30
136 -10 203 53 26 25 27 30 27 119 0 51 -3 93 -7 92 -5 0 -44 -13 -88 -28z"/>
<path d="M4625 3055 c-191 -59 -253 -139 -171 -221 28 -28 42 -34 75 -34 44 0
96 23 144 62 27 23 28 25 25 119 l-3 96 -70 -22z"/>
<path d="M3965 1861 c-16 -10 -38 -27 -47 -37 -18 -21 -48 -86 -48 -104 0 -7
50 -10 153 -8 l152 3 3 35 c5 43 -20 91 -58 113 -38 23 -117 22 -155 -2z"/>
<path d="M6924 1856 c-43 -19 -81 -62 -98 -113 l-15 -43 154 0 c152 0 155 0
160 23 3 12 0 40 -7 62 -24 73 -113 106 -194 71z"/>
</g>
</svg>
