<?xml version="1.0" standalone="no"?>
<!DOCTYPE svg PUBLIC "-//W3C//DTD SVG 20010904//EN"
 "http://www.w3.org/TR/2001/REC-SVG-20010904/DTD/svg10.dtd">
<svg version="1.0" xmlns="http://www.w3.org/2000/svg"
 width="843.000000pt" height="545.000000pt" viewBox="0 0 843.000000 545.000000"
 preserveAspectRatio="xMidYMid meet">

<g transform="translate(0.000000,545.000000) scale(0.100000,-0.100000)"
fill="#000000" stroke="none">
<path d="M3860 5004 c-150 -65 -180 -268 -55 -372 144 -118 358 -17 358 168 0
156 -162 265 -303 204z m186 -21 c21 -11 53 -39 69 -62 27 -39 30 -50 30 -120
0 -66 -4 -83 -25 -113 -73 -108 -216 -126 -312 -40 -50 45 -68 85 -68 154 0
90 52 166 135 196 43 16 125 9 171 -15z"/>
<path d="M3563 4992 c-18 -11 159 -427 200 -470 53 -56 102 -76 182 -76 52 0
80 5 110 21 77 41 100 77 195 303 49 118 88 215 87 216 -1 1 -13 4 -27 7 -24
6 -28 0 -89 -148 -35 -85 -74 -169 -87 -186 -68 -92 -191 -121 -293 -70 -70
36 -96 75 -168 247 -66 161 -77 177 -110 156z"/>
<path d="M3494 4972 c-14 -9 210 -548 247 -595 14 -18 50 -45 80 -62 45 -24
65 -29 124 -29 60 0 78 4 125 30 30 17 67 46 81 65 24 30 249 554 249 578 0 9
-39 26 -44 19 -1 -1 -42 -98 -90 -214 -50 -119 -101 -228 -118 -248 -100 -122
-306 -121 -406 0 -18 22 -68 128 -119 250 -86 209 -98 227 -129 206z"/>
<path d="M3424 4954 c-15 -6 268 -688 304 -733 15 -19 52 -48 82 -65 49 -28
64 -31 135 -31 70 0 87 4 134 30 29 16 65 44 81 63 25 30 318 718 309 726 -2
2 -13 6 -24 10 -18 5 -32 -22 -135 -272 -126 -305 -153 -347 -248 -393 -65
-31 -169 -31 -234 0 -96 46 -122 88 -248 393 -113 273 -121 286 -156 272z"/>
<path d="M3368 4933 c-10 -2 -18 -7 -18 -9 0 -14 325 -785 346 -821 48 -83
141 -132 251 -133 61 0 80 5 134 33 34 17 75 49 92 69 17 22 97 200 198 440
166 398 168 403 146 415 -12 6 -23 11 -23 10 -1 -1 -66 -157 -144 -347 -142
-341 -144 -346 -201 -402 -45 -45 -69 -60 -115 -74 -114 -33 -233 2 -312 91
-32 36 -67 111 -183 390 -79 190 -146 344 -149 344 -3 -1 -13 -3 -22 -6z"/>
<path d="M4577 4897 c-3 -7 -78 -187 -167 -402 -162 -388 -163 -390 -164 -470
-1 -65 3 -89 22 -126 52 -107 154 -171 271 -170 65 0 85 7 475 168 371 153
405 169 400 188 -4 11 -8 21 -9 23 -1 2 -157 -61 -346 -139 -377 -156 -410
-165 -512 -135 -37 11 -71 31 -106 62 -72 64 -93 111 -99 210 l-4 80 142 345
c78 189 142 348 143 352 3 15 -41 27 -46 14z"/>
<path d="M3282 4889 c-13 -5 -21 -12 -18 -17 2 -4 68 -161 145 -349 131 -317
141 -347 141 -406 0 -35 -7 -84 -16 -110 -44 -129 -203 -218 -336 -188 -25 6
-196 72 -379 147 -313 129 -333 136 -346 118 -7 -10 -10 -21 -6 -24 5 -4 186
-81 403 -170 359 -149 401 -164 466 -168 62 -4 80 0 133 23 112 51 175 148
175 270 0 68 -5 83 -162 464 -90 217 -166 400 -170 407 -5 8 -15 9 -30 3z"/>
<path d="M4501 4533 c-134 -324 -144 -352 -144 -413 -1 -206 198 -335 394
-256 316 128 633 263 636 271 1 6 -2 17 -7 25 -9 15 -22 10 -455 -168 -71 -29
-130 -47 -167 -50 -179 -14 -331 154 -297 331 5 26 58 168 119 315 102 245
109 268 93 279 -9 7 -19 13 -22 13 -4 0 -71 -156 -150 -347z"/>
<path d="M3217 4857 c-16 -11 -9 -34 95 -282 l113 -270 0 -91 c0 -84 -2 -94
-30 -139 -60 -96 -175 -154 -278 -141 -28 4 -153 50 -281 103 -127 52 -252
103 -277 113 l-46 19 -11 -23 c-10 -23 -4 -26 336 -166 214 -89 365 -145 393
-148 158 -15 302 120 301 283 0 53 -11 87 -90 275 -49 118 -113 275 -143 347
-30 73 -57 133 -60 133 -3 0 -13 -6 -22 -13z"/>
<path d="M4695 4813 c-180 -428 -218 -530 -219 -588 -2 -113 71 -216 177 -251
89 -29 135 -18 422 100 143 60 265 111 272 114 9 5 9 12 0 29 -12 21 -14 20
-227 -68 -195 -80 -221 -88 -281 -89 -157 0 -284 137 -266 290 3 25 44 139 91
253 47 114 86 211 86 217 0 5 -9 14 -20 20 -17 9 -22 6 -35 -27z"/>
<path d="M3158 4826 c-10 -7 -18 -16 -18 -20 0 -4 39 -100 86 -214 77 -184 87
-214 87 -272 2 -112 -54 -199 -161 -248 -89 -41 -139 -31 -390 73 -216 89
-231 92 -232 49 0 -6 125 -62 278 -125 264 -109 280 -114 347 -114 84 1 133
23 189 85 50 56 68 102 68 175 0 54 -12 90 -112 335 -62 151 -116 278 -119
282 -3 4 -14 1 -23 -6z"/>
<path d="M4680 4592 c-87 -214 -92 -229 -87 -282 12 -136 115 -233 247 -233
46 0 87 13 240 76 281 115 251 99 231 125 l-16 23 -160 -67 c-131 -53 -170
-66 -215 -66 -98 0 -176 49 -216 137 -36 76 -32 121 27 265 28 69 59 146 69
172 l19 46 -23 15 -23 16 -93 -227z"/>
<path d="M3089 4787 c-15 -11 -10 -29 52 -182 41 -101 69 -185 69 -206 0 -130
-110 -239 -239 -239 -46 0 -85 13 -221 69 -163 68 -165 69 -177 47 -6 -11 -9
-24 -5 -27 4 -4 97 -44 207 -90 234 -97 285 -107 374 -69 95 42 160 150 148
250 -6 49 -168 452 -183 457 -5 1 -16 -3 -25 -10z"/>
<path d="M2925 4611 c-164 -41 -229 -227 -124 -354 105 -127 310 -97 373 55
32 75 14 172 -42 231 -52 55 -142 84 -207 68z m166 -46 c46 -30 89 -113 89
-170 0 -58 -42 -137 -91 -171 -47 -32 -134 -44 -191 -25 -72 24 -137 117 -138
197 0 56 43 139 90 170 71 47 168 47 241 -1z"/>
<path d="M4825 4601 c-114 -53 -157 -183 -99 -300 67 -133 237 -159 344 -52
80 80 90 184 27 278 -59 87 -176 119 -272 74z m180 -10 c22 -10 55 -34 72 -54
130 -148 -13 -383 -206 -337 -93 22 -161 106 -161 200 0 81 53 164 125 196 43
19 123 17 170 -5z"/>
<path d="M5026 3852 c-320 -134 -407 -175 -444 -206 -48 -43 -86 -114 -97
-183 -14 -91 34 -211 109 -268 20 -15 217 -103 438 -195 377 -158 404 -167
412 -149 6 12 6 23 0 28 -5 5 -153 68 -329 141 -381 158 -359 147 -413 201
-124 126 -103 348 42 449 23 15 172 82 331 148 428 178 388 158 375 182 -6 11
-14 20 -18 20 -4 -1 -186 -76 -406 -168z"/>
<path d="M2446 3993 c-4 -9 -3 -19 1 -23 4 -4 148 -64 318 -135 369 -152 374
-155 421 -202 118 -117 112 -314 -12 -429 -37 -35 -96 -63 -389 -185 -267
-111 -345 -147 -345 -160 0 -10 4 -20 9 -24 5 -3 191 70 413 162 354 147 409
173 449 211 52 48 87 118 96 191 11 94 -44 212 -124 265 -39 26 -797 346 -819
346 -6 0 -15 -8 -18 -17z"/>
<path d="M5155 3829 c-170 -71 -324 -134 -342 -139 -49 -17 -123 -89 -149
-145 -29 -61 -32 -149 -7 -220 22 -66 93 -136 164 -163 30 -11 184 -75 343
-141 159 -66 292 -118 296 -116 4 3 10 13 12 23 5 16 -36 36 -277 136 -238 99
-289 124 -325 158 -61 59 -85 116 -85 208 0 66 4 82 31 130 48 85 95 113 390
235 146 61 268 113 270 117 2 3 1 15 -3 26 -8 20 -26 13 -318 -109z"/>
<path d="M2427 3944 c-22 -23 -3 -44 66 -72 39 -17 163 -69 274 -115 111 -46
219 -98 240 -115 22 -17 52 -54 69 -84 25 -46 29 -63 29 -133 0 -66 -5 -89
-25 -129 -45 -89 -84 -112 -382 -236 -150 -62 -276 -115 -279 -119 -4 -3 -3
-16 1 -27 8 -21 19 -17 302 100 161 68 315 131 341 141 158 60 234 243 163
390 -45 91 -73 108 -438 259 -183 76 -338 140 -344 143 -5 2 -13 0 -17 -3z"/>
<path d="M5300 3814 c-96 -41 -220 -93 -275 -116 -152 -64 -212 -131 -222
-248 -8 -82 18 -152 76 -209 41 -41 74 -58 324 -160 153 -63 279 -112 281
-110 2 2 6 13 10 24 5 19 -14 29 -211 110 -191 79 -224 95 -264 135 -81 80
-101 207 -51 307 40 77 93 111 313 202 112 45 207 86 211 90 8 7 -1 52 -11 50
-3 -1 -85 -34 -181 -75z"/>
<path d="M2407 3873 c-4 -3 -7 -14 -7 -24 0 -12 23 -27 78 -49 319 -132 359
-151 395 -188 78 -80 99 -198 53 -297 -41 -88 -74 -111 -313 -212 -198 -83
-218 -94 -215 -114 1 -13 4 -24 6 -26 3 -3 504 205 552 230 44 23 98 87 119
140 38 101 2 230 -85 298 -19 15 -155 77 -303 138 -293 122 -271 114 -280 104z"/>
<path d="M2384 3793 c-4 -13 -4 -26 -1 -29 2 -3 73 -34 156 -69 84 -35 167
-75 186 -89 70 -54 101 -164 73 -260 -23 -77 -83 -122 -263 -197 -146 -60
-160 -68 -157 -89 1 -13 4 -25 6 -27 9 -9 431 175 463 201 95 78 111 244 34
342 -37 47 -72 66 -282 154 l-209 87 -6 -24z"/>
<path d="M5287 3732 c-114 -48 -222 -99 -241 -114 -47 -38 -86 -120 -86 -181
0 -74 19 -124 67 -177 39 -43 59 -54 251 -134 114 -47 214 -86 221 -86 7 0 11
10 9 26 -3 23 -19 32 -162 92 -208 86 -252 129 -263 251 -7 72 24 148 77 194
22 19 102 58 195 97 86 35 159 68 161 72 7 10 -5 48 -14 47 -4 0 -100 -40
-215 -87z"/>
<path d="M5256 3640 c-161 -49 -209 -266 -83 -377 47 -41 96 -56 168 -51 101
7 179 82 195 186 23 151 -133 286 -280 242z m171 -36 c110 -63 133 -219 47
-314 -101 -111 -275 -88 -340 46 -92 189 111 374 293 268z"/>
<path d="M2469 3617 c-54 -28 -105 -101 -114 -160 -22 -143 109 -274 252 -252
59 9 132 60 160 114 28 54 31 146 7 194 -58 115 -194 162 -305 104z m202 -10
c169 -90 132 -348 -55 -387 -146 -30 -281 106 -246 249 31 132 182 201 301
138z"/>
<path d="M3255 3111 c-27 -10 -205 -82 -395 -161 -190 -78 -355 -146 -367
-151 -20 -7 -21 -12 -12 -32 l11 -24 334 139 c184 76 355 143 381 148 88 20
196 -15 265 -87 58 -60 83 -124 82 -213 -1 -73 -5 -84 -144 -419 -143 -345
-148 -360 -105 -361 6 0 84 179 175 398 l165 397 0 90 c0 109 -18 149 -95 219
-83 74 -191 95 -295 57z"/>
<path d="M4433 3114 c-57 -21 -129 -87 -161 -148 -23 -43 -27 -63 -26 -131 l0
-80 163 -390 c90 -214 165 -395 168 -402 3 -9 11 -9 27 -2 22 11 21 14 -122
360 -137 334 -144 353 -144 419 0 83 23 140 81 203 68 74 179 109 275 87 27
-6 197 -72 377 -146 181 -75 333 -133 339 -129 5 3 10 14 10 23 0 13 -97 57
-398 181 -377 156 -401 165 -472 167 -49 2 -89 -2 -117 -12z"/>
<path d="M3196 3010 c-16 -5 -179 -71 -362 -146 -330 -136 -332 -137 -321
-161 6 -13 15 -22 21 -19 265 111 536 218 573 226 173 37 349 -125 330 -305
-3 -33 -43 -142 -112 -311 -59 -142 -111 -269 -115 -280 -7 -17 -4 -24 15 -32
22 -10 25 -4 166 336 142 343 144 348 144 422 -1 80 -18 126 -70 188 -53 63
-194 106 -269 82z"/>
<path d="M4533 3000 c-108 -43 -177 -144 -176 -260 0 -61 10 -89 144 -412 79
-192 146 -348 149 -348 4 0 14 6 23 13 16 11 8 35 -93 280 -61 147 -114 287
-119 312 -23 121 40 243 153 303 43 22 63 27 126 26 72 -1 86 -5 310 -98 129
-54 256 -106 281 -116 l46 -19 11 23 c10 23 4 26 -336 167 -389 160 -420 168
-519 129z"/>
<path d="M3105 2894 c-52 -13 -565 -230 -565 -239 0 -5 4 -16 9 -24 8 -12 48
2 223 74 121 50 233 90 259 93 100 10 203 -45 257 -136 24 -42 27 -56 26 -132
-1 -84 -2 -89 -87 -290 -79 -187 -85 -206 -70 -217 9 -7 20 -13 23 -13 4 0 59
128 123 284 102 246 117 291 116 337 -1 103 -55 191 -141 233 -53 26 -133 40
-173 30z"/>
<path d="M4657 2886 c-59 -22 -105 -57 -137 -104 -33 -50 -55 -138 -45 -185 7
-34 222 -567 233 -579 4 -4 16 0 26 7 18 14 16 23 -69 227 -82 197 -89 218
-89 283 -1 59 4 78 29 123 53 97 146 148 253 140 42 -3 113 -28 270 -93 216
-89 231 -92 232 -50 0 6 -125 62 -277 125 -298 122 -348 135 -426 106z"/>
<path d="M3868 2877 c-57 -17 -118 -58 -153 -104 -23 -29 -355 -809 -355 -832
0 -10 29 -23 39 -17 3 2 69 156 146 341 151 363 171 398 262 452 53 31 167 43
225 24 56 -19 125 -67 156 -110 16 -22 91 -190 167 -373 76 -183 141 -336 145
-341 3 -4 15 -1 25 7 18 13 11 31 -135 382 -180 434 -189 452 -236 498 -72 70
-189 100 -286 73z"/>
<path d="M2825 2706 c-280 -114 -258 -102 -245 -126 6 -11 15 -20 21 -20 6 0
77 27 157 61 178 73 233 82 310 49 91 -39 142 -116 142 -215 0 -45 -12 -85
-67 -221 -66 -161 -67 -166 -48 -180 10 -8 22 -11 26 -7 5 5 46 102 93 216 75
182 86 215 86 268 0 104 -49 180 -145 225 -85 40 -125 34 -330 -50z"/>
<path d="M4740 2759 c-97 -44 -144 -116 -145 -224 0 -65 6 -83 84 -270 45
-110 86 -203 89 -207 4 -4 17 -1 29 5 21 12 21 13 -45 167 -59 140 -65 162
-66 226 -1 62 3 77 29 120 42 68 108 107 189 112 58 4 73 0 222 -62 88 -36
165 -66 172 -66 6 0 16 9 22 20 13 23 23 18 -256 131 -192 78 -242 85 -324 48z"/>
<path d="M3833 2710 c-48 -21 -128 -99 -139 -133 -3 -12 -64 -161 -135 -331
-71 -170 -130 -316 -131 -324 -2 -8 7 -18 18 -22 20 -8 28 7 119 228 125 301
138 328 188 380 122 126 342 100 436 -52 16 -25 130 -291 238 -554 4 -10 37
-9 51 3 4 3 -278 678 -295 704 -26 40 -65 72 -118 97 -65 31 -170 33 -232 4z"/>
<path d="M4875 2671 c-182 -46 -236 -263 -95 -383 92 -80 230 -67 308 27 110
134 30 335 -143 358 -22 3 -53 2 -70 -2z m128 -24 c65 -28 127 -121 127 -192
0 -74 -70 -173 -137 -196 -19 -6 -62 -9 -94 -7 -74 5 -132 43 -167 108 -33 63
-27 154 14 213 54 77 170 110 257 74z"/>
<path d="M2890 2654 c-46 -20 -87 -60 -112 -108 -31 -60 -23 -161 18 -218 95
-136 303 -121 376 27 72 145 -33 316 -193 315 -30 -1 -70 -8 -89 -16z m202
-30 c74 -52 105 -131 86 -219 -14 -66 -82 -137 -148 -155 -94 -25 -195 23
-242 113 -16 32 -19 54 -16 103 5 78 41 136 108 172 64 34 152 28 212 -14z"/>
<path d="M3856 2555 c-53 -20 -100 -57 -125 -99 -29 -46 -241 -558 -236 -567
3 -3 13 -9 24 -12 16 -4 31 25 107 210 49 118 102 230 117 249 16 19 50 46 75
62 41 23 58 27 127 27 92 0 138 -18 196 -76 35 -35 42 -49 174 -367 43 -102
49 -112 69 -106 11 4 22 8 24 9 2 1 -50 129 -114 284 -126 302 -146 336 -229
376 -52 25 -157 30 -209 10z"/>
<path d="M3842 2389 c-75 -37 -107 -87 -199 -308 -84 -201 -90 -228 -48 -219
13 2 38 51 84 160 86 205 128 251 241 265 70 8 133 -12 186 -61 39 -35 54 -63
114 -206 62 -147 72 -165 92 -162 12 1 24 4 26 7 10 9 -175 432 -203 464 -67
77 -203 104 -293 60z"/>
<path d="M3855 2252 c-105 -49 -154 -182 -106 -287 66 -145 237 -177 351 -66
75 73 90 158 43 252 -40 78 -94 112 -181 117 -50 2 -77 -2 -107 -16z m180 -11
c52 -23 101 -80 116 -133 47 -175 -143 -325 -301 -238 -151 84 -143 290 15
373 40 22 121 21 170 -2z"/>
<path d="M1818 1759 c-21 -12 -24 -49 -6 -67 18 -18 43 -15 63 8 17 18 17 21
1 45 -18 27 -31 30 -58 14z"/>
<path d="M2370 1751 c-20 -39 22 -82 60 -61 22 12 27 49 8 68 -18 18 -56 14
-68 -7z"/>
<path d="M5898 1749 c-21 -12 -24 -49 -6 -67 19 -19 45 -14 62 10 13 19 14 25
2 43 -16 24 -35 28 -58 14z"/>
<path d="M6430 1745 c-15 -19 -6 -61 16 -69 18 -7 64 18 64 35 0 42 -54 65
-80 34z"/>
<path d="M3406 1609 c-3 -8 -37 -158 -77 -334 -78 -351 -81 -360 -111 -392
l-21 -23 66 0 c38 0 67 4 67 10 0 6 -7 10 -15 10 -38 0 -39 55 -4 193 l10 38
77 -3 77 -3 20 -98 20 -99 -23 -18 c-12 -10 -22 -21 -22 -24 0 -3 34 -6 75 -6
70 0 95 10 60 24 -24 9 -32 38 -111 395 -40 184 -76 336 -79 339 -2 3 -7 -1
-9 -9z m28 -318 c14 -68 26 -127 26 -132 0 -5 -30 -9 -66 -9 -61 0 -66 2 -61
20 3 11 18 76 33 146 15 69 31 120 34 112 4 -7 19 -69 34 -137z"/>
<path d="M4198 1280 c-42 -187 -83 -352 -90 -368 -18 -37 -50 -39 -87 -5 -17
15 -71 104 -120 198 l-90 170 61 115 c75 142 97 176 125 191 40 21 25 29 -52
29 -78 0 -90 -6 -54 -28 30 -19 21 -54 -53 -189 -91 -169 -87 -167 -87 -33 1
165 9 213 37 225 41 18 23 25 -63 25 -50 0 -85 -4 -85 -10 0 -5 6 -10 14 -10
8 0 22 -10 30 -22 14 -19 16 -68 16 -336 0 -197 -4 -321 -10 -333 -6 -10 -20
-19 -30 -19 -11 0 -20 -4 -20 -10 0 -6 35 -10 85 -10 86 0 104 7 63 25 -29 13
-39 83 -36 240 l3 110 78 -147 c76 -145 91 -193 62 -204 -43 -17 1 -24 148
-24 l162 1 -27 20 c-33 24 -35 50 -10 154 l17 70 77 3 76 3 16 -72 c25 -107
24 -138 -5 -160 -24 -19 -24 -19 59 -19 84 0 97 6 62 27 -25 16 -35 51 -115
421 -38 171 -71 312 -75 312 -3 0 -40 -153 -82 -340z m102 11 c16 -73 30 -135
30 -137 0 -2 -30 -4 -66 -4 l-66 0 7 38 c15 82 58 256 61 247 2 -5 17 -70 34
-144z"/>
<path d="M6122 1586 c-20 -23 -34 -54 -42 -92 -24 -113 5 -198 103 -302 36
-38 72 -83 81 -100 22 -43 21 -129 -3 -169 -25 -40 -52 -48 -90 -28 -39 20
-62 63 -77 145 -12 64 -12 64 -12 -70 1 -74 3 -125 5 -112 5 27 23 28 65 2 49
-30 85 -26 122 14 40 42 56 94 56 182 -1 90 -24 142 -100 219 -84 87 -110 129
-110 182 0 94 49 146 105 109 32 -21 51 -59 64 -130 6 -33 13 -62 16 -64 3 -3
5 52 5 122 0 82 -4 125 -10 121 -5 -3 -10 -13 -10 -21 0 -19 -9 -18 -45 6 -47
31 -87 26 -123 -14z"/>
<path d="M1356 1601 c-4 -6 -1 -11 8 -11 8 0 22 -7 30 -16 14 -13 16 -58 16
-335 0 -319 -4 -359 -35 -359 -7 0 -17 -5 -20 -11 -5 -7 34 -10 130 -7 l137 3
33 36 c75 82 69 273 -9 324 l-24 16 23 23 c70 70 53 261 -28 320 -24 18 -47
21 -141 24 -76 3 -116 0 -120 -7z m229 -64 c24 -24 35 -46 40 -80 10 -62 -1
-130 -26 -161 -21 -27 -74 -42 -108 -31 -20 6 -21 13 -21 149 0 78 3 146 7
149 3 4 22 7 41 7 25 0 42 -8 67 -33z m7 -344 c36 -37 48 -73 48 -139 0 -105
-42 -158 -122 -152 l-43 3 -3 158 -3 157 49 0 c40 0 53 -5 74 -27z"/>
<path d="M1760 1602 c0 -4 10 -12 22 -17 12 -6 25 -21 29 -35 4 -14 7 -155 7
-315 0 -159 -3 -301 -7 -315 -4 -14 -17 -29 -29 -35 -40 -18 -23 -25 63 -25
50 0 85 4 85 10 0 6 -9 10 -20 10 -10 0 -24 9 -30 19 -6 12 -10 136 -10 333 0
268 2 317 16 336 8 12 22 22 30 22 8 0 14 5 14 10 0 6 -35 10 -85 10 -47 0
-85 -3 -85 -8z"/>
<path d="M1960 1602 c0 -4 10 -12 22 -17 33 -14 37 -54 37 -345 -1 -299 -5
-341 -36 -355 -47 -20 -18 -25 129 -23 l152 3 17 98 c16 99 12 116 -10 40 -6
-24 -22 -54 -34 -69 -20 -23 -30 -26 -86 -26 -43 0 -66 4 -72 14 -5 7 -9 151
-9 321 0 294 1 308 20 327 11 11 27 20 35 20 8 0 15 5 15 10 0 6 -37 10 -90
10 -49 0 -90 -3 -90 -8z"/>
<path d="M2330 1602 c0 -5 11 -14 25 -20 l25 -12 -2 -337 -3 -338 -22 -10
c-42 -18 -24 -25 62 -25 50 0 85 4 85 10 0 6 -9 10 -20 10 -10 0 -24 9 -30 19
-6 13 -10 138 -10 339 0 296 1 320 18 335 10 10 24 17 30 17 7 0 12 5 12 10 0
6 -35 10 -85 10 -47 0 -85 -4 -85 -8z"/>
<path d="M2525 1600 c-3 -5 1 -10 9 -10 8 0 22 -10 30 -22 14 -19 16 -68 16
-336 0 -312 -4 -352 -35 -352 -7 0 -17 -4 -20 -10 -4 -6 20 -10 64 -10 41 0
71 4 71 10 0 6 -6 10 -14 10 -32 0 -35 27 -39 308 -1 155 0 277 4 270 3 -7 37
-141 75 -298 37 -157 71 -289 75 -293 4 -5 32 99 64 230 31 131 65 270 75 308
l18 70 1 -278 c1 -278 -3 -317 -34 -317 -7 0 -17 -4 -20 -10 -4 -6 25 -10 79
-10 87 0 105 7 64 25 l-23 10 0 340 0 340 23 10 c37 16 25 25 -32 25 -44 0
-56 -4 -60 -17 -2 -10 -33 -137 -67 -283 -34 -146 -65 -268 -68 -272 -3 -4
-37 123 -76 283 l-69 289 -52 0 c-29 0 -56 -4 -59 -10z"/>
<path d="M4510 1604 c0 -5 10 -14 22 -19 12 -6 25 -21 29 -35 11 -41 10 -606
-1 -635 -6 -15 -19 -29 -30 -32 -50 -13 -10 -23 93 -23 127 0 163 14 212 80
93 125 94 454 3 590 -41 60 -77 74 -210 78 -65 3 -118 0 -118 -4z m252 -83
c55 -58 73 -127 73 -286 0 -160 -20 -238 -76 -297 -30 -31 -43 -38 -75 -38
-21 0 -45 4 -52 8 -9 7 -12 79 -10 327 l3 319 25 7 c41 12 73 0 112 -40z"/>
<path d="M4950 1600 c0 -5 4 -10 9 -10 5 0 17 -7 25 -16 14 -13 16 -58 16
-335 0 -321 -4 -359 -35 -359 -8 0 -15 -4 -15 -10 0 -6 57 -10 150 -10 83 0
150 2 150 4 0 2 7 40 15 83 20 103 18 121 -6 52 -31 -88 -48 -100 -127 -97
l-67 3 -3 163 -2 162 53 0 c63 0 87 -19 87 -68 0 -17 5 -34 10 -37 6 -4 10 41
10 127 0 90 -3 128 -10 118 -5 -8 -10 -27 -10 -41 0 -40 -29 -59 -88 -59 l-52
0 0 150 0 150 65 0 c76 0 100 -17 110 -77 11 -65 13 -61 14 30 l1 87 -150 0
c-93 0 -150 -4 -150 -10z"/>
<path d="M5310 1602 c0 -5 11 -14 24 -20 14 -6 26 -22 30 -42 3 -18 6 -160 6
-315 0 -296 -6 -345 -41 -345 -10 0 -19 -4 -19 -10 0 -6 30 -10 70 -10 40 0
70 4 70 10 0 6 -9 10 -20 10 -13 0 -24 10 -30 26 -6 14 -10 143 -9 297 0 150
4 263 8 252 4 -11 38 -149 76 -307 38 -159 71 -288 74 -288 4 0 37 129 75 288
38 158 72 296 77 307 4 11 8 -100 8 -246 1 -280 -5 -329 -40 -329 -10 0 -19
-4 -19 -10 0 -6 35 -10 85 -10 50 0 85 4 85 10 0 6 -9 10 -20 10 -13 0 -24 10
-30 26 -13 34 -13 615 0 649 6 15 19 29 30 32 41 11 18 24 -37 21 l-57 -3 -66
-275 c-37 -151 -69 -281 -71 -289 -3 -8 -33 101 -68 242 -34 142 -67 273 -72
292 -10 35 -11 35 -64 35 -30 0 -55 -4 -55 -8z"/>
<path d="M5850 1602 c0 -5 11 -14 23 -19 21 -10 25 -21 30 -80 9 -86 7 -480
-1 -553 -6 -44 -12 -57 -29 -65 -42 -18 -24 -25 62 -25 50 0 85 4 85 10 0 6
-9 10 -20 10 -10 0 -24 9 -30 19 -6 12 -10 136 -10 333 0 268 2 317 16 336 8
12 22 22 30 22 8 0 14 5 14 10 0 6 -35 10 -85 10 -47 0 -85 -4 -85 -8z"/>
<path d="M6380 1600 c0 -5 6 -10 13 -10 8 0 21 -8 30 -18 15 -16 17 -55 17
-336 0 -200 -4 -324 -10 -337 -6 -10 -20 -19 -30 -19 -11 0 -20 -4 -20 -10 0
-6 35 -10 85 -10 86 0 104 7 63 25 l-23 10 -3 328 c-2 330 1 367 33 367 8 0
15 5 15 10 0 6 -35 10 -85 10 -50 0 -85 -4 -85 -10z"/>
<path d="M3070 585 c-14 -8 -19 -14 -12 -15 9 0 12 -32 12 -128 0 -141 4 -152
56 -152 47 0 74 38 74 104 0 64 -21 98 -58 94 -34 -4 -42 -28 -8 -28 21 0 27
-7 37 -40 21 -68 -16 -143 -55 -111 -12 10 -15 38 -15 148 0 75 -2 137 -3 139
-2 1 -14 -4 -28 -11z"/>
<path d="M3254 585 c-7 -17 4 -37 17 -30 12 8 12 45 -1 45 -6 0 -13 -7 -16
-15z"/>
<path d="M3345 587 c-12 -10 -14 -16 -7 -21 17 -10 16 -248 0 -264 -9 -9 -3
-12 28 -11 21 0 33 3 27 6 -10 3 -13 44 -13 154 0 82 -4 149 -8 149 -5 0 -16
-6 -27 -13z"/>
<path d="M3444 585 c-7 -17 4 -37 17 -30 12 8 12 45 -1 45 -6 0 -13 -7 -16
-15z"/>
<path d="M3941 586 c-19 -11 -21 -14 -7 -19 14 -5 16 -25 16 -131 0 -109 -2
-126 -17 -135 -14 -8 -9 -10 26 -11 39 0 43 2 27 13 -13 9 -17 23 -14 52 l3
40 28 -43 c15 -23 25 -47 22 -52 -4 -6 10 -10 32 -9 21 0 32 3 25 6 -7 3 -28
29 -48 60 l-35 54 23 29 c13 15 32 33 43 38 18 9 16 11 -12 11 -22 1 -31 -3
-28 -11 4 -12 -37 -68 -49 -68 -3 0 -7 42 -8 94 l-3 94 -24 -12z"/>
<path d="M4350 585 c-19 -11 -21 -14 -7 -15 13 0 17 -9 17 -43 l0 -43 -34 4
c-28 3 -37 -1 -51 -21 -39 -60 -26 -161 22 -173 14 -4 34 -2 45 5 11 7 18 7
18 1 0 -14 13 -12 36 6 10 8 13 13 7 9 -7 -3 -14 -5 -15 -3 0 2 -4 67 -7 145
l-6 141 -25 -13z m0 -124 c5 -11 10 -47 10 -80 0 -52 -3 -61 -21 -66 -29 -10
-49 13 -56 63 -10 76 38 136 67 83z"/>
<path d="M4864 586 c-4 -10 -2 -22 4 -28 8 -8 13 -7 18 6 4 10 2 22 -4 28 -8
8 -13 7 -18 -6z"/>
<path d="M5090 581 c0 -12 6 -21 16 -21 9 0 14 7 12 17 -5 25 -28 28 -28 4z"/>
<path d="M3250 480 c-14 -12 -19 -19 -12 -15 9 5 12 -14 12 -79 0 -58 -4 -86
-12 -89 -7 -3 4 -6 26 -6 30 -1 36 2 28 12 -6 7 -13 55 -14 106 l-3 93 -25
-22z"/>
<path d="M3440 485 c-14 -8 -19 -14 -12 -15 8 0 12 -24 12 -84 0 -58 -4 -86
-12 -89 -7 -3 4 -6 26 -6 30 -1 36 2 28 12 -6 7 -13 54 -14 104 l-3 91 -25
-13z"/>
<path d="M4863 487 c-13 -6 -23 -14 -23 -19 0 -5 5 -6 10 -3 6 4 10 -25 10
-79 0 -58 -4 -86 -12 -89 -7 -3 4 -6 26 -6 30 -1 36 2 28 12 -6 7 -13 54 -14
104 -3 89 -3 90 -25 80z"/>
<path d="M2238 478 c5 -7 20 -49 32 -93 12 -44 26 -84 30 -89 5 -4 16 17 26
48 10 31 20 56 24 56 3 0 12 -22 19 -50 7 -27 16 -52 20 -55 4 -2 20 36 34 85
40 133 60 132 97 -5 13 -47 26 -85 30 -85 8 0 43 110 37 117 -3 2 -11 -13 -18
-34 l-12 -38 -19 69 c-15 56 -16 71 -6 77 8 5 -14 9 -51 9 -47 0 -62 -3 -54
-11 7 -7 7 -24 -3 -57 -24 -79 -25 -80 -44 -17 -14 43 -16 63 -8 72 8 10 3 13
-26 13 -34 0 -36 -1 -22 -16 20 -19 20 -52 2 -95 l-14 -34 -12 30 c-7 17 -13
49 -14 72 -1 40 -3 43 -30 43 -21 0 -26 -3 -18 -12z"/>
<path d="M2573 468 c8 -13 24 -58 37 -100 13 -43 26 -75 29 -72 3 3 20 48 36
100 28 85 29 94 13 94 -11 0 -15 -5 -12 -14 3 -7 -3 -40 -12 -72 l-17 -59 -21
63 c-17 55 -18 64 -6 72 11 7 4 10 -23 10 -36 0 -37 -1 -24 -22z"/>
<path d="M2728 478 c5 -7 22 -53 37 -103 l28 -90 15 35 c8 19 19 46 25 60 9
24 11 23 26 -27 9 -29 19 -55 23 -58 3 -3 15 27 27 67 12 40 28 85 36 101 14
26 13 27 -13 27 -17 0 -22 -3 -15 -8 10 -6 8 -22 -6 -72 -20 -68 -21 -68 -45
13 -13 42 -12 48 2 57 13 7 6 9 -28 9 -35 0 -41 -2 -27 -10 20 -12 22 -57 3
-109 l-13 -35 -17 59 c-10 33 -15 67 -13 78 4 14 -1 18 -25 18 -23 0 -28 -3
-20 -12z"/>
<path d="M3521 481 c-9 -6 -10 -11 -2 -15 16 -10 15 -163 -1 -169 -7 -3 5 -5
27 -5 22 0 34 2 28 5 -19 7 -17 147 2 163 8 7 22 10 30 6 20 -7 22 -161 3
-169 -7 -3 4 -6 26 -6 32 -1 36 1 27 13 -19 23 -10 146 11 160 28 17 42 -7 46
-77 3 -50 1 -67 -13 -80 -15 -16 -14 -17 21 -17 30 0 35 3 26 12 -7 7 -12 41
-12 84 0 40 -3 79 -6 88 -8 20 -48 21 -64 1 -12 -14 -15 -14 -30 0 -21 19 -39
19 -62 -2 -17 -15 -18 -15 -18 0 0 18 -17 22 -39 8z"/>
<path d="M3796 468 c-15 -21 -13 -38 4 -38 5 0 10 10 12 23 4 32 42 30 46 -4
2 -20 -5 -30 -35 -50 -32 -20 -38 -30 -38 -58 0 -42 25 -62 55 -44 12 8 21 9
25 3 10 -16 34 -11 45 10 9 16 8 18 -5 14 -13 -5 -15 6 -15 68 0 44 -5 79 -12
86 -20 20 -65 14 -82 -10z m51 -146 c-20 -19 -37 -7 -37 27 0 18 8 34 23 44
21 14 22 14 25 -21 2 -21 -2 -41 -11 -50z"/>
<path d="M4122 478 c-14 -14 -16 -48 -3 -48 5 0 11 10 13 23 4 29 38 29 49 -1
7 -19 3 -26 -31 -47 -39 -25 -58 -61 -46 -90 8 -23 36 -30 59 -16 16 10 21 10
28 -1 6 -10 13 -10 26 -2 22 14 30 36 9 28 -14 -5 -16 4 -16 64 0 39 -3 77 -6
86 -7 19 -64 22 -82 4z m52 -155 c-25 -18 -38 -11 -42 19 -2 18 5 32 25 48
l28 22 3 -38 c3 -28 -1 -42 -14 -51z"/>
<path d="M4443 463 c-42 -63 -11 -173 47 -173 23 0 33 7 45 30 20 38 19 51 -1
22 -8 -12 -24 -22 -34 -22 -23 0 -50 36 -50 67 0 20 5 23 43 24 23 1 45 1 50
0 13 -2 8 34 -9 57 -22 32 -69 30 -91 -5z m67 -2 c15 -29 13 -31 -25 -31 -36
0 -46 15 -23 38 18 18 36 15 48 -7z"/>
<path d="M4581 481 c-9 -6 -10 -11 -2 -15 15 -10 14 -149 -1 -164 -9 -9 -3
-12 28 -12 25 0 34 3 26 9 -9 6 -13 30 -12 82 1 41 1 82 1 92 -1 18 -18 22
-40 8z"/>
<path d="M4637 483 c-13 -12 -7 -20 16 -19 21 1 22 -3 25 -78 2 -57 -1 -82
-10 -87 -8 -6 2 -8 27 -8 22 0 34 3 28 6 -19 7 -17 147 2 163 8 7 22 10 30 6
20 -7 22 -161 3 -169 -7 -3 5 -6 27 -6 30 -1 36 2 27 11 -7 7 -12 42 -12 88 0
46 -5 81 -12 88 -17 17 -44 15 -63 -5 -16 -16 -18 -16 -27 0 -9 17 -48 23 -61
10z"/>
<path d="M4952 478 c-19 -19 -14 -65 10 -88 12 -11 25 -20 30 -20 13 0 28 -38
22 -55 -9 -23 -46 -14 -61 15 l-13 25 0 -32 c0 -32 1 -33 40 -33 33 0 42 4 51
24 17 36 4 68 -36 95 -25 17 -35 31 -33 45 4 30 39 27 55 -4 l13 -25 0 33 c0
30 -2 32 -33 32 -18 0 -38 -5 -45 -12z"/>
<path d="M5081 481 c-9 -6 -10 -11 -2 -15 15 -10 14 -149 -1 -164 -9 -9 -3
-12 28 -11 21 0 33 3 27 6 -9 3 -13 33 -13 99 0 96 -5 106 -39 85z"/>
<path d="M5271 464 c-30 -38 -32 -108 -4 -151 24 -37 78 -32 104 10 25 39 22
117 -6 147 -26 29 -69 26 -94 -6z m76 -14 c15 -30 17 -104 3 -131 -26 -48 -72
2 -73 80 -1 77 41 108 70 51z"/>
<path d="M5421 481 c-9 -6 -10 -11 -2 -15 16 -10 15 -163 -1 -169 -7 -3 4 -6
26 -6 32 -1 37 1 27 13 -7 9 -12 43 -11 83 1 37 1 76 1 86 -1 18 -18 22 -40 8z"/>
<path d="M5475 480 c-9 -14 -6 -17 20 -22 13 -2 20 3 20 12 0 18 -30 26 -40
10z"/>
<path d="M5556 468 c-20 -28 -21 -72 -1 -88 12 -10 12 -15 -2 -36 -11 -18 -13
-28 -6 -35 8 -8 6 -20 -6 -40 -23 -40 -7 -63 47 -67 34 -3 47 2 67 22 46 46
23 96 -44 96 -43 0 -52 6 -44 26 3 8 13 12 23 9 9 -3 29 4 44 16 23 18 27 28
24 55 -3 23 0 34 9 34 29 0 10 18 -24 24 -60 9 -71 7 -87 -16z m70 -12 c10
-41 1 -81 -20 -84 -10 -2 -22 2 -27 10 -10 16 -12 82 -2 91 15 16 43 6 49 -17z
m29 -180 c19 -14 19 -15 1 -35 -36 -39 -116 -18 -102 27 6 17 15 22 45 22 20
0 46 -6 56 -14z"/>
<path d="M2990 310 c0 -11 7 -20 15 -20 8 0 15 9 15 20 0 11 -7 20 -15 20 -8
0 -15 -9 -15 -20z"/>
<path d="M5175 321 c-8 -15 3 -31 21 -31 9 0 14 7 12 17 -4 20 -24 28 -33 14z"/>
</g>
</svg>
